<svg viewBox="0 0 24 24" fill="none" xmlns="http://www.w3.org/2000/svg">
    <rect x="2" y="2" width="20" height="16" rx="2" fill="#4a5568" />
    <rect x="4" y="4" width="4" height="4" rx="1" fill="#a0aec0" />
    <rect x="9" y="4" width="4" height="4" rx="1" fill="#a0aec0" />
    <rect x="14" y="4" width="4" height="4" rx="1" fill="#a0aec0" />
    <rect x="4" y="9" width="4" height="4" rx="1" fill="#a0aec0" />
    <rect x="9" y="9" width="4" height="4" rx="1" fill="#a0aec0" />
    <rect x="14" y="9" width="4" height="4" rx="1" fill="#a0aec0" />
    <rect x="6" y="18" width="12" height="4" rx="1" fill="#4a5568" />
    <text x="5.5" y="7" font-family="sans-serif" font-size="3" font-weight="bold" fill="#1a202c">W</text>
    <text x="5.5" y="12" font-family="sans-serif" font-size="3" font-weight="bold" fill="#1a202c">A</text>
    <text x="10.5" y="12" font-family="sans-serif" font-size="3" font-weight="bold" fill="#1a202c">S</text>
    <text x="15.5" y="12" font-family="sans-serif" font-size="3" font-weight="bold" fill="#1a202c">D</text>
    <path d="M19 6 L 21 4" stroke="#f6e05e" stroke-width="1" stroke-linecap="round" />
    <path d="M19 4 L 21 6" stroke="#f6e05e" stroke-width="1" stroke-linecap="round" />
    <path d="M19 11 L 21 9" stroke="#f6e05e" stroke-width="1" stroke-linecap="round" />
    <path d="M19 9 L 21 11" stroke="#f6e05e" stroke-width="1" stroke-linecap="round" />
  </svg>