<?xml version="1.0" ?><!DOCTYPE svg  PUBLIC '-//W3C//DTD SVG 1.1//EN'  'http://www.w3.org/Graphics/SVG/1.1/DTD/svg11.dtd'><svg height="16.0366mm" style="shape-rendering:geometricPrecision; text-rendering:geometricPrecision; image-rendering:optimizeQuality; fill-rule:evenodd; clip-rule:evenodd" version="1.1" viewBox="0 0 1403 1604" width="14.0312mm" xml:space="preserve" xmlns="http://www.w3.org/2000/svg" xmlns:xlink="http://www.w3.org/1999/xlink"><defs><style type="text/css">
   <![CDATA[
    .fil1 {fill:#E62129}
    .fil0 {fill:#80D010}
    .fil2 {fill:#F98812}
   ]]>
  </style></defs><g id="Layer_x0020_1"><g id="_1528193248"><g><rect class="fil0" height="201" width="601" x="401"/><rect class="fil0" height="200" width="100" x="301" y="100"/><rect class="fil0" height="200" width="100" x="1002" y="100"/><rect class="fil0" height="100" width="100" x="501" y="401"/><rect class="fil0" height="100" width="100" x="802" y="401"/><rect class="fil0" height="100" width="100" x="301" y="702"/><rect class="fil0" height="100" width="100" x="1002" y="702"/><rect class="fil0" height="100" width="301" x="902" y="802"/><rect class="fil0" height="100" width="501" x="702" y="902"/><rect class="fil0" height="100" width="203" x="902" y="1003"/><rect class="fil0" height="100" width="100" x="702" y="1103"/><rect class="fil0" height="200.429" width="97.5509" x="1105" y="1103"/><rect class="fil0" height="100" width="203" x="902" y="1203"/><rect class="fil0" height="100" width="301" x="702" y="1303"/></g><rect class="fil1" height="200" width="601" x="401" y="201"/><rect class="fil1" height="301" width="100" x="301" y="301"/><rect class="fil1" height="100" width="100" x="501" y="501"/><rect class="fil1" height="100" width="100" x="802" y="501"/><rect class="fil1" height="301" width="100" x="1002" y="301"/><rect class="fil1" height="201" width="100" x="1203" y="601"/><rect class="fil1" height="100" width="200" x="601" y="702"/><rect class="fil1" height="100" width="501" x="100" y="802"/><rect class="fil1" height="100" width="200" y="902"/><rect class="fil1" height="100" width="401" x="301" y="902"/><rect class="fil1" height="401" width="100" y="1002"/><rect class="fil1" height="401" width="201" x="400" y="1002"/><rect class="fil1" height="301" width="100" x="100" y="1103"/><rect class="fil1" height="296.086" width="99.6819" x="301" y="1107"/><rect class="fil1" height="100" width="100" x="200" y="1303"/><rect class="fil1" height="100" width="200" x="702" y="1002"/><rect class="fil1" height="100.274" width="97.5509" x="1105" y="1002"/><rect class="fil1" height="100" width="303" x="802" y="1103"/><rect class="fil1" height="100" width="200" x="702" y="1203"/><rect class="fil2" height="401" width="100" x="100" y="201"/><rect class="fil2" height="301" width="100" x="200" y="401"/><rect class="fil2" height="401" width="101" x="401" y="401"/><rect class="fil2" height="100" width="100" x="301" y="601"/><rect class="fil2" height="401" width="100" x="1203" y="201"/><rect class="fil2" height="301" width="100" x="1103" y="401"/><rect class="fil2" height="401" width="100" x="902" y="401"/><rect class="fil2" height="301" width="200" x="601" y="401"/><rect class="fil2" height="201" width="100" x="501" y="601"/><rect class="fil2" height="301" width="100" x="802" y="601"/><rect class="fil2" height="100" width="200" x="601" y="802"/><rect class="fil2" height="100" width="100" x="1002" y="601"/><rect class="fil2" height="501" width="100" x="1203" y="802"/><rect class="fil2" height="401" width="100" x="200" y="902"/><rect class="fil2" height="105" width="300" x="100" y="1002"/><rect class="fil2" height="401" width="100" x="601" y="1002"/><rect class="fil1" height="301" width="100" x="1303" y="802"/><rect class="fil2" height="100" width="100" x="1303" y="1103"/><rect class="fil1" height="100" width="297" x="806" y="1403"/><rect class="fil2" height="100" width="501" y="1403"/><rect class="fil1" height="100" width="301" x="301" y="1504"/><rect class="fil1" height="100" width="100" x="501" y="1403"/></g></g></svg>