<?xml version="1.0" standalone="no"?>
<!DOCTYPE svg>
<svg version="1.0" xmlns="http://www.w3.org/2000/svg"
 width="225.000000pt" height="225.000000pt" viewBox="0 0 225.000000 225.000000"
 preserveAspectRatio="xMidYMid meet">

<g transform="translate(0.000000,225.000000) scale(0.100000,-0.100000)"
fill="#000000" stroke="none">
<path d="M1060 1703 c-35 -13 -74 -49 -101 -91 -31 -49 -39 -50 -14 -2 15 29
15 30 -5 30 -14 0 -26 -11 -36 -35 -30 -72 -8 -187 46 -245 25 -27 26 -30 9
-35 -31 -10 -22 -24 19 -28 30 -3 28 -4 -15 -5 -29 -1 -53 1 -53 4 0 4 10 15
22 25 l21 19 -21 23 c-33 35 -52 91 -52 152 0 48 -2 55 -20 55 -22 0 -23 -2
-20 -75 1 -34 11 -67 30 -103 l28 -53 -24 -24 c-20 -20 -35 -25 -74 -25 l-49
0 15 35 c7 19 14 48 14 66 0 44 -24 32 -31 -17 -9 -66 -24 -84 -69 -84 -29 0
-40 -4 -40 -15 0 -13 -42 -15 -320 -15 l-320 0 0 -160 0 -160 340 0 c296 0
340 -2 340 -15 0 -10 10 -15 29 -15 18 0 35 -8 43 -18 7 -10 32 -31 56 -47 23
-15 42 -32 42 -37 0 -6 -29 13 -65 41 -87 69 -99 67 -72 -12 9 -25 27 -46 55
-64 39 -26 61 -57 48 -70 -3 -3 -19 0 -37 6 -18 6 -34 9 -37 7 -8 -8 9 -46 21
-46 7 0 24 -7 40 -14 24 -13 27 -13 27 0 0 8 5 12 10 9 6 -3 10 -28 10 -56 0
-27 5 -49 10 -49 6 0 10 48 10 125 0 73 4 125 10 125 5 0 21 -5 35 -12 l25
-11 0 -179 c0 -171 1 -178 20 -178 19 0 20 7 20 170 l0 170 28 -6 c15 -4 31
-10 35 -14 5 -4 7 -93 5 -198 -3 -175 -2 -191 15 -196 16 -4 17 10 17 195 l0
199 45 0 45 0 0 -190 c0 -162 2 -190 15 -190 17 0 17 -7 15 212 -1 91 2 168 7
171 4 2 20 7 36 11 l27 6 0 -165 c0 -158 1 -165 20 -165 19 0 20 7 20 173 l0
174 25 11 c14 7 30 12 35 12 6 0 10 -51 10 -120 0 -73 4 -120 10 -120 6 0 10
23 10 50 0 28 5 50 10 50 6 0 10 -7 10 -16 0 -12 4 -14 13 -7 6 6 24 13 39 17
25 6 47 40 34 53 -3 3 -19 0 -36 -7 -17 -7 -33 -10 -36 -7 -14 13 10 48 48 71
36 22 67 71 68 109 0 18 -35 4 -86 -34 -30 -23 -57 -39 -60 -36 -3 3 7 12 23
20 15 9 41 29 57 46 22 23 39 31 63 31 23 0 33 5 33 15 0 13 44 15 335 15
l335 0 0 160 0 160 -315 0 c-273 0 -315 2 -315 15 0 11 -11 15 -40 15 -33 0
-42 4 -52 25 -6 14 -17 25 -25 25 -10 0 -11 -5 -3 -19 15 -30 14 -31 -36 -31
-34 0 -54 6 -74 23 l-27 23 28 50 c16 27 29 57 29 67 0 27 -29 20 -41 -10 -5
-16 -22 -45 -36 -66 l-26 -38 21 -20 c12 -11 22 -22 22 -24 0 -3 -21 -4 -47
-4 -30 1 -37 4 -20 6 30 5 36 20 11 30 -13 5 -12 8 5 25 75 69 91 227 31 300
l-19 23 -1 -27 c0 -15 7 -31 18 -37 9 -6 12 -11 6 -11 -8 0 -9 -11 -3 -38 8
-36 -2 -106 -16 -120 -4 -4 -4 4 0 18 13 41 8 122 -9 139 -15 14 -16 13 -16
-7 0 -12 -4 -22 -9 -22 -12 0 -9 33 4 42 13 9 -39 63 -80 83 -32 14 -124 19
-155 8z m70 -127 c-13 -13 -35 7 -25 24 5 8 11 8 21 -1 10 -8 12 -15 4 -23z
m79 -23 c17 -18 22 -32 19 -55 -4 -28 -4 -29 8 -13 7 10 11 21 9 25 -2 4 7 18
20 30 18 17 25 19 25 9 0 -19 -24 -53 -77 -112 -24 -26 -41 -52 -38 -58 10
-15 66 -1 95 24 14 12 19 15 13 7 -7 -8 -13 -19 -13 -24 1 -6 12 3 25 19 14
17 25 25 25 19 0 -13 -58 -68 -90 -85 -26 -14 -150 -19 -150 -7 0 4 -10 7 -22
5 -15 -1 -22 3 -20 12 2 8 -3 11 -11 8 -17 -6 -53 16 -67 43 -8 14 -6 18 5 16
8 -1 21 -8 27 -14 7 -7 20 -12 30 -12 10 0 18 -6 18 -14 0 -28 97 -46 145 -27
16 7 12 10 -22 15 -59 10 -74 32 -90 131 -3 17 -9 37 -14 46 -12 23 0 30 38
23 18 -3 44 -3 58 0 22 6 24 9 15 29 -9 20 -9 20 2 3 7 -10 24 -30 37 -43z
m61 18 c0 -14 -18 -23 -30 -16 -6 4 -8 11 -5 16 8 12 35 12 35 0z m-343 -73
c-2 -13 -4 -3 -4 22 0 25 2 35 4 23 2 -13 2 -33 0 -45z m374 -61 c-10 -9 -11
-8 -5 6 3 10 9 15 12 12 3 -3 0 -11 -7 -18z m-1009 -244 c21 -19 24 -71 5 -97
-7 -9 -32 -20 -55 -23 -41 -6 -42 -6 -42 -44 0 -22 -4 -39 -10 -39 -5 0 -10 6
-10 13 0 8 -4 7 -10 -3 -7 -10 -10 16 -10 82 0 53 -3 103 -6 112 -9 24 112 23
138 -1z m208 -1 c0 -14 -7 -17 -40 -14 -39 4 -40 3 -40 -27 0 -28 3 -31 30
-31 22 0 30 -5 30 -18 0 -15 -6 -18 -30 -14 -31 4 -31 6 -30 -65 0 -5 7 -8 14
-8 8 0 18 -4 22 -8 10 -10 26 -9 20 2 -3 5 3 11 15 14 15 4 19 1 17 -11 -3
-14 -17 -18 -70 -20 l-67 -3 -3 111 -3 110 68 0 c57 0 67 -3 67 -18z m158 -43
c51 -66 57 -64 50 17 -3 43 -2 44 25 44 23 0 28 -4 23 -16 -3 -9 -6 -56 -6
-105 0 -79 -2 -89 -18 -89 -10 0 -34 22 -55 48 -20 27 -46 57 -58 68 l-21 19
4 -73 c3 -71 3 -72 -22 -71 -14 0 -20 2 -15 5 12 5 5 182 -8 202 -6 9 0 12 22
12 26 0 39 -10 79 -61z m352 34 c0 -21 -3 -24 -12 -15 -7 7 -25 12 -40 12
l-28 0 0 -95 0 -95 -25 0 c-21 0 -25 5 -24 23 1 12 1 55 1 96 l-2 73 -35 -4
c-29 -3 -35 -1 -35 14 0 16 10 18 100 18 l100 0 0 -27z m178 -75 c22 -57 36
-107 32 -112 -13 -13 -41 1 -47 24 -4 17 -14 20 -54 20 -43 0 -49 -3 -55 -24
-4 -16 -12 -24 -24 -23 -16 1 -16 6 7 67 14 36 32 84 40 108 12 33 20 42 38
42 21 0 29 -13 63 -102z m164 55 l-3 -48 35 40 c19 22 35 43 36 48 0 4 16 7
35 7 l34 0 -50 -47 c-55 -51 -56 -39 9 -128 32 -43 32 -45 11 -45 -14 0 -38
18 -63 45 -23 25 -45 45 -50 45 -4 0 -6 -20 -4 -45 3 -41 1 -45 -19 -45 -22 0
-23 3 -23 94 0 52 -3 101 -6 110 -5 13 1 16 28 16 l33 0 -3 -47z m254 25 c-3
-13 -6 -62 -6 -110 0 -81 -2 -88 -20 -88 -18 0 -20 7 -20 73 0 39 -3 89 -6
110 -7 36 -6 37 26 37 29 0 32 -3 26 -22z m116 -78 l-4 -100 40 4 c21 2 44 6
51 10 6 4 11 4 11 -1 -1 -21 -20 -29 -80 -32 l-65 -2 0 110 0 111 25 0 25 0
-3 -100z m200 4 l-3 -96 49 3 c45 4 49 2 41 -13 -8 -14 -23 -18 -75 -18 -36 0
-63 3 -60 8 2 4 1 54 -2 110 l-7 102 30 0 30 0 -3 -96z m200 39 c-10 -126 -34
-131 -46 -10 l-7 67 29 0 29 0 -5 -57z m-9 -138 c7 -18 -6 -27 -26 -19 -18 7
-11 34 8 34 7 0 15 -7 18 -15z m-974 -138 c-1 -50 -13 -88 -21 -66 -7 22 -10
98 -3 109 13 20 25 -2 24 -43z m-51 18 c2 -15 -9 -29 -38 -48 -23 -15 -40 -21
-38 -14 3 6 15 17 28 24 13 6 27 19 32 27 7 13 3 16 -22 16 -24 0 -33 -6 -40
-26 -6 -15 -9 -38 -8 -53 4 -33 -2 -32 -114 21 -57 27 -88 47 -88 57 0 10 3
12 8 5 7 -11 147 -2 159 10 3 3 31 4 62 3 48 -2 56 -5 59 -22z m232 10 c3 -2
34 -5 68 -6 34 -1 62 -5 62 -9 0 -7 -165 -87 -190 -92 -11 -2 -14 4 -12 23 1
15 -2 38 -8 53 -7 20 -16 26 -40 26 -25 0 -29 -3 -22 -16 5 -8 19 -21 32 -27
13 -7 25 -18 28 -24 2 -7 -15 -1 -37 14 -48 31 -54 60 -13 65 30 4 121 0 132
-7z m-544 -93 c-4 -3 -14 2 -24 12 -16 18 -16 18 6 6 13 -6 21 -14 18 -18z
m278 7 c-26 -29 -6 -39 78 -39 74 0 89 10 61 43 l-18 22 23 -19 c26 -22 28
-41 6 -50 -26 -10 -144 -7 -166 5 -20 11 -20 11 3 35 27 29 40 32 13 3z m436
-4 c-7 -9 -15 -13 -17 -11 -6 6 20 36 26 30 2 -2 -2 -10 -9 -19z m-51 -38
c-15 -12 -29 -31 -32 -42 -3 -13 -5 -8 -6 13 0 18 3 31 8 28 4 -3 17 1 27 9
30 23 32 17 3 -8z m-596 6 c3 6 5 -8 5 -33 0 -25 -3 -34 -5 -20 -3 14 -14 33
-26 43 l-22 18 22 -10 c16 -8 23 -8 26 2z"/>
<path d="M1140 1496 c0 -2 7 -7 16 -10 8 -3 12 -2 9 4 -6 10 -25 14 -25 6z"/>
<path d="M1116 1465 c-18 -19 -11 -41 17 -57 17 -9 24 -7 39 12 24 30 23 46
-4 54 -32 8 -35 8 -52 -9z m58 -20 c-7 -16 -14 -18 -38 -9 -26 10 -18 24 14
24 22 0 28 -4 24 -15z"/>
<path d="M972 1398 c2 -6 15 -18 29 -27 l24 -15 -24 27 c-26 29 -35 34 -29 15z"/>
<path d="M1239 1363 c-13 -15 -12 -15 9 -4 23 12 28 21 13 21 -5 0 -15 -7 -22
-17z"/>
<path d="M200 1140 c0 -39 1 -41 28 -38 24 3 27 7 27 38 0 31 -3 35 -27 38
-27 3 -28 1 -28 -38z"/>
<path d="M1101 1115 c-15 -42 -12 -48 23 -43 l25 3 -17 39 -17 38 -14 -37z"/>
<path d="M885 891 c-38 -4 -55 -9 -47 -15 15 -9 90 0 112 14 8 5 11 9 5 8 -5
-1 -37 -4 -70 -7z"/>
<path d="M965 890 c-3 -5 -25 -15 -48 -21 l-42 -11 35 -18 c19 -9 45 -21 58
-24 19 -6 22 -4 22 19 0 14 5 35 10 46 9 16 7 19 -9 19 -11 0 -23 -4 -26 -10z"/>
<path d="M1250 881 c5 -11 10 -32 10 -46 0 -23 3 -25 23 -19 12 3 38 15 57 24
l35 18 -42 11 c-23 6 -45 16 -48 21 -3 6 -15 10 -26 10 -16 0 -18 -3 -9 -19z"/>
<path d="M1300 891 c23 -16 83 -23 110 -12 21 8 16 10 -32 10 -31 1 -65 4 -75
7 -15 5 -15 4 -3 -5z"/>
<path d="M793 1500 c-20 -24 -21 -32 -12 -60 7 -17 9 -54 6 -81 -7 -55 6 -58
23 -6 l10 32 -4 -37 c-5 -40 1 -46 23 -25 11 10 12 9 6 -3 -5 -10 0 -8 16 5
13 11 26 22 29 24 3 2 -6 1 -19 -2 -17 -4 -21 -3 -13 5 7 7 5 24 -9 55 -10 25
-19 54 -20 66 0 12 -3 29 -7 38 -6 13 -11 11 -29 -11z"/>
<path d="M1437 1485 c-4 -26 -18 -69 -31 -95 -24 -48 -24 -49 -5 -66 11 -10
29 -18 40 -19 15 -1 18 3 14 19 -6 19 -4 18 15 -4 l21 -25 -8 25 c-10 31 -10
85 -1 125 5 23 1 37 -16 58 l-23 29 -6 -47z m10 -117 c-2 -13 -4 -5 -4 17 -1
22 1 32 4 23 2 -10 2 -28 0 -40z m-26 -35 c13 -16 12 -17 -3 -4 -10 7 -18 15
-18 17 0 8 8 3 21 -13z"/>
<path d="M719 1377 c-15 -11 -39 -49 -39 -61 0 -3 9 -6 20 -6 22 0 43 32 38
60 -2 15 -6 16 -19 7z"/>
<path d="M1520 1377 c0 -29 22 -65 43 -71 12 -3 23 -3 26 0 8 8 -25 57 -48 73
-18 12 -21 11 -21 -2z"/>
<path d="M1565 880 c-3 -5 -1 -10 4 -10 6 0 11 5 11 10 0 6 -2 10 -4 10 -3 0
-8 -4 -11 -10z"/>
<path d="M880 698 c0 -89 4 -110 25 -153 l24 -50 1 131 c0 126 -1 131 -22 143
-23 11 -23 11 2 5 28 -7 26 -2 -7 15 l-23 12 0 -103z"/>
<path d="M1340 784 l-25 -15 25 7 c28 7 35 12 29 18 -2 2 -15 -2 -29 -10z"/>
<path d="M1333 763 c-10 -3 -13 -40 -13 -136 l1 -132 24 50 c21 41 25 65 25
138 0 88 -3 94 -37 80z"/>
<path d="M990 650 c0 -90 4 -116 23 -158 l22 -51 2 140 c2 136 2 140 -20 150
l-22 10 23 -5 c12 -2 22 -1 22 4 0 4 -11 10 -25 12 l-25 5 0 -107z"/>
<path d="M1230 750 l-25 -8 28 -1 c15 -1 27 4 27 9 0 6 -1 10 -2 9 -2 -1 -14
-5 -28 -9z"/>
<path d="M1216 722 c-5 -8 -4 -272 2 -272 2 0 8 14 14 31 17 50 21 25 4 -32
-20 -67 -20 -70 3 -35 16 24 19 49 20 172 1 137 0 144 -18 144 -11 0 -22 -3
-25 -8z"/>
<path d="M1105 710 c-8 -13 -7 -349 2 -362 5 -8 10 29 14 87 l5 100 3 -100 c2
-86 4 -96 14 -74 8 18 11 80 9 187 -3 149 -4 160 -22 165 -11 3 -22 2 -25 -3z"/>
<path d="M880 530 c0 -35 5 -48 20 -58 19 -12 20 -11 14 15 -4 16 -13 42 -20
58 l-13 30 -1 -45z"/>
<path d="M1347 521 c-9 -30 -16 -55 -15 -57 2 -1 11 4 21 11 14 10 17 24 15
57 l-3 43 -18 -54z"/>
<path d="M990 473 c0 -27 6 -46 19 -57 19 -18 19 -17 6 34 -18 67 -25 74 -25
23z"/>
</g>
</svg>
