<svg viewBox="0 0 24 24" fill="none" xmlns="http://www.w3.org/2000/svg">
    <rect x="2" y="2" width="20" height="20" rx="2" fill="#000000" />
    <path d="M7 7 C 7 5, 17 5, 17 7" stroke="#000000" stroke-width="2" fill="#1a1a1a" />
    <path d="M5 9 C 5 6, 19 6, 19 9 L 19 12 C 19 16, 17 18, 12 20 C 7 18, 5 16, 5 12 Z" fill="#1a1a1a" />
    <path d="M8 9 L 8 14" stroke="#444444" stroke-width="1" />
    <path d="M16 9 L 16 14" stroke="#444444" stroke-width="1" />
    <path d="M7.5 10 C 7.5 8, 16.5 8, 16.5 10" stroke="#444444" stroke-width="0.75" fill="none" />
    <path d="M9 12 L 15 12" stroke="#444444" stroke-width="0.75" />
    <path d="M9 14 L 15 14" stroke="#444444" stroke-width="0.75" />
    <path d="M10 16 L 14 16" stroke="#444444" stroke-width="0.75" />
    <path d="M7 7 L 7 9" stroke="#000000" stroke-width="1" />
    <path d="M17 7 L 17 9" stroke="#000000" stroke-width="1" />
    <path d="M9 7 L 9 8" stroke="#000000" stroke-width="1" />
    <path d="M15 7 L 15 8" stroke="#000000" stroke-width="1" />
    <path d="M12 7 L 12 9" stroke="#000000" stroke-width="1" />
    <path d="M8 10 C 10 12, 14 12, 16 10" stroke="#444444" stroke-width="0.5" fill="none" />
    <path d="M10 18 C 11 17.5, 13 17.5, 14 18" stroke="#444444" stroke-width="0.5" />
    <circle cx="8" cy="11" r="1" fill="#444444" />
    <circle cx="16" cy="11" r="1" fill="#444444" />
    <path d="M5 12 L 4 14 L 5 16 L 7 17" stroke="#1a1a1a" stroke-width="1" fill="none" />
    <path d="M19 12 L 20 14 L 19 16 L 17 17" stroke="#1a1a1a" stroke-width="1" fill="none" />
    <path d="M7 17 C 8 19, 16 19, 17 17" stroke="#1a1a1a" stroke-width="1" fill="none" />
  </svg>