<?xml version="1.0" encoding="UTF-8"?>
<svg xmlns="http://www.w3.org/2000/svg" xmlns:xlink="http://www.w3.org/1999/xlink" width="2836" height="2837" viewBox="0 0 2836 2837">
<defs>
<clipPath id="clip-0">
<path clip-rule="nonzero" d="M 0.511719 1.449219 L 2835.160156 1.449219 L 2835.160156 2836.09375 L 0.511719 2836.09375 Z M 0.511719 1.449219 "/>
</clipPath>
</defs>
<path fill-rule="evenodd" fill="rgb(58.984375%, 58.984375%, 58.984375%)" fill-opacity="1" d="M 1 0.351562 L 2835.648438 0.351562 L 2835.648438 2835 L 1 2835 L 1 0.351562 "/>
<g clip-path="url(#clip-0)">
<path fill-rule="evenodd" fill="rgb(100%, 100%, 100%)" fill-opacity="1" d="M 0.511719 1.449219 L 2835.160156 1.449219 L 2835.160156 2836.09375 L 0.511719 2836.09375 Z M 2835.160156 1.449219 L 0.511719 1.449219 L 0.511719 2836.101562 L 2835.160156 2836.101562 Z M 2251.339844 -1290.558594 L -1291.5 585.269531 L 584.335938 4128.109375 L 4127.171875 2252.273438 Z M 2251.339844 -1290.558594 "/>
<path fill-rule="evenodd" fill="rgb(100%, 100%, 100%)" fill-opacity="1" d="M 2201.328125 -1128 L -1128.941406 635.28125 L 634.34375 3965.550781 L 3964.609375 2202.261719 Z M 2201.328125 -1128 "/>
<path fill-rule="evenodd" fill="rgb(100%, 100%, 100%)" fill-opacity="1" d="M 2195.210938 -1108.109375 L -1109.039062 641.398438 L 640.464844 3945.648438 L 3944.710938 2196.140625 Z M 2195.210938 -1108.109375 "/>
<path fill-rule="evenodd" fill="rgb(100%, 100%, 100%)" fill-opacity="1" d="M 2189.078125 -1088.210938 L -1089.148438 647.519531 L 646.585938 3925.75 L 3924.820312 2190.019531 Z M 2189.078125 -1088.210938 "/>
<path fill-rule="evenodd" fill="rgb(100%, 100%, 100%)" fill-opacity="1" d="M 2182.960938 -1068.308594 L -1069.25 653.640625 L 652.707031 3905.859375 L 3904.921875 2183.898438 Z M 2182.960938 -1068.308594 "/>
<path fill-rule="evenodd" fill="rgb(100%, 100%, 100%)" fill-opacity="1" d="M 2176.839844 -1048.421875 L -1049.351562 659.761719 L 658.828125 3885.960938 L 3885.019531 2177.777344 Z M 2176.839844 -1048.421875 "/>
<path fill-rule="evenodd" fill="rgb(100%, 100%, 100%)" fill-opacity="1" d="M 2170.71875 -1028.519531 L -1029.460938 665.890625 L 664.949219 3866.058594 L 3865.128906 2171.65625 Z M 2170.71875 -1028.519531 "/>
<path fill-rule="evenodd" fill="rgb(100%, 100%, 100%)" fill-opacity="1" d="M 2164.601562 -1008.621094 L -1009.558594 672.011719 L 671.070312 3846.171875 L 3845.230469 2165.535156 Z M 2164.601562 -1008.621094 "/>
<path fill-rule="evenodd" fill="rgb(100%, 100%, 100%)" fill-opacity="1" d="M 2158.480469 -988.730469 L -989.664062 678.128906 L 677.191406 3826.269531 L 3825.328125 2159.414062 Z M 2158.480469 -988.730469 "/>
<path fill-rule="evenodd" fill="rgb(100%, 100%, 100%)" fill-opacity="1" d="M 2152.359375 -968.828125 L -969.765625 684.25 L 683.3125 3806.371094 L 3805.441406 2153.292969 Z M 2152.359375 -968.828125 "/>
<path fill-rule="evenodd" fill="rgb(100%, 100%, 100%)" fill-opacity="1" d="M 2146.238281 -948.929688 L -949.871094 690.371094 L 689.433594 3786.476562 L 3785.539062 2147.171875 Z M 2146.238281 -948.929688 "/>
<path fill-rule="evenodd" fill="rgb(100%, 100%, 100%)" fill-opacity="1" d="M 2140.121094 -929.039062 L -929.972656 696.488281 L 695.554688 3766.578125 L 3765.640625 2141.050781 Z M 2140.121094 -929.039062 "/>
<path fill-rule="evenodd" fill="rgb(100%, 100%, 100%)" fill-opacity="1" d="M 2133.988281 -909.140625 L -910.074219 702.609375 L 701.675781 3746.683594 L 3745.75 2134.929688 Z M 2133.988281 -909.140625 "/>
<path fill-rule="evenodd" fill="rgb(100%, 100%, 100%)" fill-opacity="1" d="M 2127.871094 -889.238281 L -890.179688 708.730469 L 707.796875 3726.785156 L 3725.851562 2128.808594 Z M 2127.871094 -889.238281 "/>
<path fill-rule="evenodd" fill="rgb(100%, 100%, 100%)" fill-opacity="1" d="M 2121.75 -869.351562 L -870.28125 714.851562 L 713.917969 3706.890625 L 3705.949219 2122.6875 Z M 2121.75 -869.351562 "/>
<path fill-rule="evenodd" fill="rgb(100%, 100%, 100%)" fill-opacity="1" d="M 2115.628906 -849.449219 L -850.386719 720.96875 L 720.039062 3686.992188 L 3686.058594 2116.566406 Z M 2115.628906 -849.449219 "/>
<path fill-rule="evenodd" fill="rgb(100%, 100%, 100%)" fill-opacity="1" d="M 2109.511719 -829.550781 L -830.488281 727.101562 L 726.160156 3667.097656 L 3666.160156 2110.445312 Z M 2109.511719 -829.550781 "/>
<path fill-rule="evenodd" fill="rgb(100%, 100%, 100%)" fill-opacity="1" d="M 2103.390625 -809.660156 L -810.59375 733.21875 L 732.28125 3647.199219 L 3646.261719 2104.324219 Z M 2103.390625 -809.660156 "/>
<path fill-rule="evenodd" fill="rgb(100%, 100%, 100%)" fill-opacity="1" d="M 2097.269531 -789.761719 L -790.695312 739.339844 L 738.402344 3627.304688 L 3626.371094 2098.203125 Z M 2097.269531 -789.761719 "/>
<path fill-rule="evenodd" fill="rgb(100%, 100%, 100%)" fill-opacity="1" d="M 2091.148438 -769.859375 L -770.800781 745.460938 L 744.523438 3607.40625 L 3606.46875 2092.085938 Z M 2091.148438 -769.859375 "/>
<path fill-rule="evenodd" fill="rgb(100%, 100%, 100%)" fill-opacity="1" d="M 2085.03125 -749.96875 L -750.902344 751.578125 L 750.644531 3587.511719 L 3586.570312 2085.964844 Z M 2085.03125 -749.96875 "/>
<path fill-rule="evenodd" fill="rgb(100%, 100%, 100%)" fill-opacity="1" d="M 2078.910156 -730.070312 L -731.007812 757.699219 L 756.765625 3567.613281 L 3566.679688 2079.84375 Z M 2078.910156 -730.070312 "/>
<path fill-rule="evenodd" fill="rgb(100%, 100%, 100%)" fill-opacity="1" d="M 2072.789062 -710.171875 L -711.109375 763.820312 L 762.886719 3547.71875 L 3546.78125 2073.722656 Z M 2072.789062 -710.171875 "/>
<path fill-rule="evenodd" fill="rgb(100%, 100%, 100%)" fill-opacity="1" d="M 2066.660156 -690.28125 L -691.214844 769.941406 L 769.007812 3527.820312 L 3526.878906 2067.601562 Z M 2066.660156 -690.28125 "/>
<path fill-rule="evenodd" fill="rgb(100%, 100%, 100%)" fill-opacity="1" d="M 2060.539062 -670.378906 L -671.316406 776.058594 L 775.128906 3507.925781 L 3506.988281 2061.480469 Z M 2060.539062 -670.378906 "/>
<path fill-rule="evenodd" fill="rgb(100%, 100%, 100%)" fill-opacity="1" d="M 2054.421875 -650.480469 L -651.421875 782.179688 L 781.25 3488.027344 L 3487.089844 2055.359375 Z M 2054.421875 -650.480469 "/>
<path fill-rule="evenodd" fill="rgb(100%, 100%, 100%)" fill-opacity="1" d="M 2048.300781 -630.589844 L -631.523438 788.308594 L 787.371094 3468.128906 L 3467.191406 2049.238281 Z M 2048.300781 -630.589844 "/>
<path fill-rule="evenodd" fill="rgb(100%, 100%, 100%)" fill-opacity="1" d="M 2042.179688 -610.691406 L -611.628906 794.429688 L 793.492188 3448.234375 L 3447.300781 2043.117188 Z M 2042.179688 -610.691406 "/>
<path fill-rule="evenodd" fill="rgb(100%, 100%, 100%)" fill-opacity="1" d="M 2036.058594 -590.789062 L -591.730469 800.550781 L 799.613281 3428.339844 L 3427.398438 2036.996094 Z M 2036.058594 -590.789062 "/>
<path fill-rule="evenodd" fill="rgb(100%, 100%, 100%)" fill-opacity="1" d="M 2029.941406 -570.898438 L -571.835938 806.671875 L 805.734375 3408.441406 L 3407.511719 2030.875 Z M 2029.941406 -570.898438 "/>
<path fill-rule="evenodd" fill="rgb(100%, 100%, 100%)" fill-opacity="1" d="M 2023.820312 -551 L -551.9375 812.789062 L 811.855469 3388.542969 L 3387.609375 2024.753906 Z M 2023.820312 -551 "/>
<path fill-rule="evenodd" fill="rgb(100%, 100%, 100%)" fill-opacity="1" d="M 2017.699219 -531.109375 L -532.039062 818.910156 L 817.976562 3368.648438 L 3367.710938 2018.632812 Z M 2017.699219 -531.109375 "/>
<path fill-rule="evenodd" fill="rgb(100%, 100%, 100%)" fill-opacity="1" d="M 2011.578125 -511.210938 L -512.144531 825.03125 L 824.097656 3348.75 L 3347.808594 2012.511719 Z M 2011.578125 -511.210938 "/>
<path fill-rule="evenodd" fill="rgb(100%, 100%, 100%)" fill-opacity="1" d="M 2005.449219 -491.308594 L -492.246094 831.148438 L 830.21875 3328.855469 L 3327.921875 2006.390625 Z M 2005.449219 -491.308594 "/>
<path fill-rule="evenodd" fill="rgb(100%, 100%, 100%)" fill-opacity="1" d="M 1999.328125 -471.421875 L -472.351562 837.269531 L 836.339844 3308.957031 L 3308.019531 2000.269531 Z M 1999.328125 -471.421875 "/>
<path fill-rule="evenodd" fill="rgb(100%, 100%, 100%)" fill-opacity="1" d="M 1993.210938 -451.519531 L -452.453125 843.390625 L 842.460938 3289.0625 L 3288.128906 1994.148438 Z M 1993.210938 -451.519531 "/>
<path fill-rule="evenodd" fill="rgb(100%, 100%, 100%)" fill-opacity="1" d="M 1987.089844 -431.621094 L -432.558594 849.519531 L 848.578125 3269.164062 L 3268.230469 1988.027344 Z M 1987.089844 -431.621094 "/>
<path fill-rule="evenodd" fill="rgb(100%, 100%, 100%)" fill-opacity="1" d="M 1980.96875 -411.730469 L -412.660156 855.640625 L 854.699219 3249.269531 L 3248.328125 1981.90625 Z M 1980.96875 -411.730469 "/>
<path fill-rule="evenodd" fill="rgb(100%, 100%, 100%)" fill-opacity="1" d="M 1974.851562 -391.828125 L -392.765625 861.761719 L 860.820312 3229.371094 L 3228.441406 1975.785156 Z M 1974.851562 -391.828125 "/>
<path fill-rule="evenodd" fill="rgb(100%, 100%, 100%)" fill-opacity="1" d="M 1968.730469 -371.929688 L -372.867188 867.878906 L 866.941406 3209.476562 L 3208.539062 1969.664062 Z M 1968.730469 -371.929688 "/>
<path fill-rule="evenodd" fill="rgb(100%, 100%, 100%)" fill-opacity="1" d="M 1962.609375 -352.039062 L -352.972656 874 L 873.0625 3189.578125 L 3188.640625 1963.542969 Z M 1962.609375 -352.039062 "/>
<path fill-rule="evenodd" fill="rgb(100%, 100%, 100%)" fill-opacity="1" d="M 1956.488281 -332.140625 L -333.074219 880.121094 L 879.183594 3169.679688 L 3168.75 1957.421875 Z M 1956.488281 -332.140625 "/>
<path fill-rule="evenodd" fill="rgb(100%, 100%, 100%)" fill-opacity="1" d="M 1950.371094 -312.238281 L -313.179688 886.238281 L 885.304688 3149.785156 L 3148.851562 1951.300781 Z M 1950.371094 -312.238281 "/>
<path fill-rule="evenodd" fill="rgb(100%, 100%, 100%)" fill-opacity="1" d="M 1944.238281 -292.351562 L -293.28125 892.359375 L 891.425781 3129.886719 L 3128.949219 1945.179688 Z M 1944.238281 -292.351562 "/>
<path fill-rule="evenodd" fill="rgb(100%, 100%, 100%)" fill-opacity="1" d="M 1938.121094 -272.449219 L -273.386719 898.480469 L 897.546875 3109.992188 L 3109.058594 1939.058594 Z M 1938.121094 -272.449219 "/>
<path fill-rule="evenodd" fill="rgb(100%, 100%, 100%)" fill-opacity="1" d="M 1932 -252.550781 L -253.488281 904.601562 L 903.667969 3090.09375 L 3089.160156 1932.9375 Z M 1932 -252.550781 "/>
<path fill-rule="evenodd" fill="rgb(100%, 100%, 100%)" fill-opacity="1" d="M 1925.878906 -232.660156 L -233.589844 910.730469 L 909.789062 3070.199219 L 3069.261719 1926.816406 Z M 1925.878906 -232.660156 "/>
<path fill-rule="evenodd" fill="rgb(100%, 100%, 100%)" fill-opacity="1" d="M 1919.761719 -212.761719 L -213.691406 916.851562 L 915.910156 3050.296875 L 3049.359375 1920.695312 Z M 1919.761719 -212.761719 "/>
<path fill-rule="evenodd" fill="rgb(100%, 100%, 100%)" fill-opacity="1" d="M 1913.640625 -192.859375 L -193.796875 922.96875 L 922.03125 3030.402344 L 3029.46875 1914.574219 Z M 1913.640625 -192.859375 "/>
<path fill-rule="evenodd" fill="rgb(100%, 100%, 100%)" fill-opacity="1" d="M 1907.519531 -172.960938 L -173.898438 929.089844 L 928.152344 3010.503906 L 3009.570312 1908.453125 Z M 1907.519531 -172.960938 "/>
<path fill-rule="evenodd" fill="rgb(100%, 100%, 100%)" fill-opacity="1" d="M 1901.398438 -153.070312 L -154.003906 935.210938 L 934.273438 2990.609375 L 2989.671875 1902.332031 Z M 1901.398438 -153.070312 "/>
<path fill-rule="evenodd" fill="rgb(100%, 100%, 100%)" fill-opacity="1" d="M 1895.28125 -133.171875 L -134.105469 941.328125 L 940.394531 2970.710938 L 2969.78125 1896.210938 Z M 1895.28125 -133.171875 "/>
<path fill-rule="evenodd" fill="rgb(100%, 100%, 100%)" fill-opacity="1" d="M 1889.148438 -113.269531 L -114.210938 947.449219 L 946.515625 2950.816406 L 2949.878906 1890.089844 Z M 1889.148438 -113.269531 "/>
<path fill-rule="evenodd" fill="rgb(100%, 100%, 100%)" fill-opacity="1" d="M 1883.03125 -93.378906 L -94.3125 953.570312 L 952.636719 2930.917969 L 2929.980469 1883.96875 Z M 1883.03125 -93.378906 "/>
<path fill-rule="evenodd" fill="rgb(100%, 100%, 100%)" fill-opacity="1" d="M 1876.910156 -73.480469 L -74.414062 959.691406 L 958.757812 2911.023438 L 2910.089844 1877.847656 Z M 1876.910156 -73.480469 "/>
<path fill-rule="evenodd" fill="rgb(100%, 100%, 100%)" fill-opacity="1" d="M 1870.789062 -53.578125 L -54.519531 965.820312 L 964.878906 2891.125 L 2890.191406 1871.726562 Z M 1870.789062 -53.578125 "/>
<path fill-rule="evenodd" fill="rgb(100%, 100%, 100%)" fill-opacity="1" d="M 1864.671875 -33.691406 L -34.621094 971.941406 L 971 2871.230469 L 2870.289062 1865.605469 Z M 1864.671875 -33.691406 "/>
<path fill-rule="evenodd" fill="rgb(100%, 100%, 100%)" fill-opacity="1" d="M 1858.550781 -13.789062 L -14.726562 978.058594 L 977.121094 2851.332031 L 2850.398438 1859.484375 Z M 1858.550781 -13.789062 "/>
</g>
<path fill-rule="evenodd" fill="rgb(100%, 100%, 100%)" fill-opacity="1" d="M 1852.429688 6.109375 L 5.171875 984.179688 L 983.242188 2831.4375 L 2830.5 1853.363281 Z M 1852.429688 6.109375 "/>
<path fill-rule="evenodd" fill="rgb(100%, 100%, 100%)" fill-opacity="1" d="M 1846.308594 26 L 25.066406 990.300781 L 989.363281 2811.539062 L 2810.601562 1847.242188 Z M 1846.308594 26 "/>
<path fill-rule="evenodd" fill="rgb(100%, 100%, 100%)" fill-opacity="1" d="M 1840.191406 45.898438 L 44.964844 996.421875 L 995.484375 2791.644531 L 2790.710938 1841.121094 Z M 1840.191406 45.898438 "/>
<path fill-rule="evenodd" fill="rgb(100%, 100%, 100%)" fill-opacity="1" d="M 1834.058594 65.800781 L 64.859375 1002.539062 L 1001.609375 2771.746094 L 2770.808594 1835 Z M 1834.058594 65.800781 "/>
<path fill-rule="evenodd" fill="rgb(100%, 100%, 100%)" fill-opacity="1" d="M 1827.941406 85.691406 L 84.757812 1008.660156 L 1007.730469 2751.847656 L 2750.910156 1828.878906 Z M 1827.941406 85.691406 "/>
<path fill-rule="evenodd" fill="rgb(100%, 100%, 100%)" fill-opacity="1" d="M 1821.820312 105.589844 L 104.652344 1014.78125 L 1013.851562 2731.953125 L 2731.019531 1822.761719 Z M 1821.820312 105.589844 "/>
<path fill-rule="evenodd" fill="rgb(100%, 100%, 100%)" fill-opacity="1" d="M 1815.699219 125.488281 L 124.550781 1020.898438 L 1019.96875 2712.054688 L 2711.121094 1816.640625 Z M 1815.699219 125.488281 "/>
<path fill-rule="evenodd" fill="rgb(100%, 100%, 100%)" fill-opacity="1" d="M 1809.578125 145.378906 L 144.445312 1027.03125 L 1026.089844 2692.160156 L 2691.21875 1810.519531 Z M 1809.578125 145.378906 "/>
<path fill-rule="evenodd" fill="rgb(100%, 100%, 100%)" fill-opacity="1" d="M 1803.460938 165.28125 L 164.34375 1033.148438 L 1032.210938 2672.261719 L 2671.328125 1804.398438 Z M 1803.460938 165.28125 "/>
<path fill-rule="evenodd" fill="rgb(100%, 100%, 100%)" fill-opacity="1" d="M 1797.339844 185.179688 L 184.242188 1039.269531 L 1038.328125 2652.367188 L 2651.429688 1798.269531 Z M 1797.339844 185.179688 "/>
<path fill-rule="evenodd" fill="rgb(100%, 100%, 100%)" fill-opacity="1" d="M 1791.21875 205.070312 L 204.136719 1045.390625 L 1044.449219 2632.46875 L 2631.53125 1792.148438 Z M 1791.21875 205.070312 "/>
<path fill-rule="evenodd" fill="rgb(100%, 100%, 100%)" fill-opacity="1" d="M 1785.101562 224.96875 L 224.035156 1051.511719 L 1050.570312 2612.574219 L 2611.640625 1786.03125 Z M 1785.101562 224.96875 "/>
<path fill-rule="evenodd" fill="rgb(100%, 100%, 100%)" fill-opacity="1" d="M 1778.980469 244.871094 L 243.929688 1057.628906 L 1056.691406 2592.675781 L 2591.738281 1779.910156 Z M 1778.980469 244.871094 "/>
<path fill-rule="evenodd" fill="rgb(100%, 100%, 100%)" fill-opacity="1" d="M 1772.859375 264.761719 L 263.828125 1063.75 L 1062.820312 2572.777344 L 2571.839844 1773.789062 Z M 1772.859375 264.761719 "/>
<path fill-rule="evenodd" fill="rgb(100%, 100%, 100%)" fill-opacity="1" d="M 1766.730469 284.660156 L 283.722656 1069.871094 L 1068.941406 2552.882812 L 2551.949219 1767.671875 Z M 1766.730469 284.660156 "/>
<path fill-rule="evenodd" fill="rgb(100%, 100%, 100%)" fill-opacity="1" d="M 1760.609375 304.558594 L 303.621094 1075.988281 L 1075.058594 2532.984375 L 2532.050781 1761.550781 Z M 1760.609375 304.558594 "/>
<path fill-rule="evenodd" fill="rgb(100%, 100%, 100%)" fill-opacity="1" d="M 1754.488281 324.449219 L 323.519531 1082.109375 L 1081.179688 2513.089844 L 2512.148438 1755.429688 Z M 1754.488281 324.449219 "/>
<path fill-rule="evenodd" fill="rgb(100%, 100%, 100%)" fill-opacity="1" d="M 1748.371094 344.351562 L 343.414062 1088.238281 L 1087.300781 2493.191406 L 2492.261719 1749.308594 Z M 1748.371094 344.351562 "/>
<path fill-rule="evenodd" fill="rgb(100%, 100%, 100%)" fill-opacity="1" d="M 1742.25 364.25 L 363.3125 1094.359375 L 1093.421875 2473.296875 L 2472.359375 1743.191406 Z M 1742.25 364.25 "/>
<path fill-rule="evenodd" fill="rgb(100%, 100%, 100%)" fill-opacity="1" d="M 1736.128906 384.140625 L 383.207031 1100.480469 L 1099.539062 2453.398438 L 2452.460938 1737.058594 Z M 1736.128906 384.140625 "/>
<path fill-rule="evenodd" fill="rgb(100%, 100%, 100%)" fill-opacity="1" d="M 1730.011719 404.039062 L 403.105469 1106.601562 L 1105.660156 2433.503906 L 2432.570312 1730.941406 Z M 1730.011719 404.039062 "/>
<path fill-rule="evenodd" fill="rgb(100%, 100%, 100%)" fill-opacity="1" d="M 1723.890625 423.941406 L 423 1112.71875 L 1111.78125 2413.605469 L 2412.671875 1724.820312 Z M 1723.890625 423.941406 "/>
<path fill-rule="evenodd" fill="rgb(100%, 100%, 100%)" fill-opacity="1" d="M 1717.769531 443.828125 L 442.898438 1118.839844 L 1117.910156 2393.710938 L 2392.769531 1718.699219 Z M 1717.769531 443.828125 "/>
<path fill-rule="evenodd" fill="rgb(100%, 100%, 100%)" fill-opacity="1" d="M 1711.640625 463.730469 L 462.792969 1124.960938 L 1124.03125 2373.8125 L 2372.878906 1712.578125 Z M 1711.640625 463.730469 "/>
<path fill-rule="evenodd" fill="rgb(100%, 100%, 100%)" fill-opacity="1" d="M 1705.519531 483.628906 L 482.691406 1131.078125 L 1130.148438 2353.914062 L 2352.980469 1706.460938 Z M 1705.519531 483.628906 "/>
<path fill-rule="evenodd" fill="rgb(100%, 100%, 100%)" fill-opacity="1" d="M 1699.398438 503.519531 L 502.589844 1137.199219 L 1136.269531 2334.019531 L 2333.078125 1700.339844 Z M 1699.398438 503.519531 "/>
<path fill-rule="evenodd" fill="rgb(100%, 100%, 100%)" fill-opacity="1" d="M 1693.28125 523.421875 L 522.484375 1143.320312 L 1142.390625 2314.121094 L 2313.191406 1694.21875 Z M 1693.28125 523.421875 "/>
<path fill-rule="evenodd" fill="rgb(100%, 100%, 100%)" fill-opacity="1" d="M 1687.160156 543.320312 L 542.382812 1149.449219 L 1148.511719 2294.226562 L 2293.289062 1688.101562 Z M 1687.160156 543.320312 "/>
<path fill-rule="evenodd" fill="rgb(100%, 100%, 100%)" fill-opacity="1" d="M 1681.039062 563.210938 L 562.277344 1155.570312 L 1154.628906 2274.328125 L 2273.390625 1681.980469 Z M 1681.039062 563.210938 "/>
<path fill-rule="evenodd" fill="rgb(100%, 100%, 100%)" fill-opacity="1" d="M 1674.921875 583.109375 L 582.175781 1161.691406 L 1160.75 2254.433594 L 2253.5 1675.851562 Z M 1674.921875 583.109375 "/>
<path fill-rule="evenodd" fill="rgb(100%, 100%, 100%)" fill-opacity="1" d="M 1668.800781 603.011719 L 602.070312 1167.808594 L 1166.871094 2234.535156 L 2233.601562 1669.730469 Z M 1668.800781 603.011719 "/>
<path fill-rule="evenodd" fill="rgb(100%, 100%, 100%)" fill-opacity="1" d="M 1662.679688 622.898438 L 621.96875 1173.929688 L 1172.988281 2214.640625 L 2213.699219 1663.609375 Z M 1662.679688 622.898438 "/>
<path fill-rule="evenodd" fill="rgb(100%, 100%, 100%)" fill-opacity="1" d="M 1656.558594 642.800781 L 641.863281 1180.050781 L 1179.121094 2194.742188 L 2193.808594 1657.488281 Z M 1656.558594 642.800781 "/>
<path fill-rule="evenodd" fill="rgb(100%, 100%, 100%)" fill-opacity="1" d="M 1650.429688 662.699219 L 661.761719 1186.171875 L 1185.238281 2174.847656 L 2173.910156 1651.371094 Z M 1650.429688 662.699219 "/>
<path fill-rule="evenodd" fill="rgb(100%, 100%, 100%)" fill-opacity="1" d="M 1644.308594 682.589844 L 681.65625 1192.289062 L 1191.359375 2154.949219 L 2154.011719 1645.25 Z M 1644.308594 682.589844 "/>
<path fill-rule="evenodd" fill="rgb(100%, 100%, 100%)" fill-opacity="1" d="M 1638.191406 702.488281 L 701.554688 1198.410156 L 1197.480469 2135.050781 L 2134.121094 1639.128906 Z M 1638.191406 702.488281 "/>
<path fill-rule="evenodd" fill="rgb(100%, 100%, 100%)" fill-opacity="1" d="M 1632.070312 722.390625 L 721.449219 1204.539062 L 1203.601562 2115.15625 L 2114.21875 1633.011719 Z M 1632.070312 722.390625 "/>
<path fill-rule="evenodd" fill="rgb(100%, 100%, 100%)" fill-opacity="1" d="M 1625.949219 742.28125 L 741.347656 1210.660156 L 1209.71875 2095.257812 L 2094.320312 1626.890625 Z M 1625.949219 742.28125 "/>
<path fill-rule="evenodd" fill="rgb(100%, 100%, 100%)" fill-opacity="1" d="M 1619.828125 762.179688 L 761.246094 1216.78125 L 1215.839844 2075.363281 L 2074.429688 1620.769531 Z M 1619.828125 762.179688 "/>
<path fill-rule="evenodd" fill="rgb(100%, 100%, 100%)" fill-opacity="1" d="M 1613.710938 782.078125 L 781.140625 1222.898438 L 1221.960938 2055.464844 L 2054.53125 1614.640625 Z M 1613.710938 782.078125 "/>
<path fill-rule="evenodd" fill="rgb(100%, 100%, 100%)" fill-opacity="1" d="M 1607.589844 801.96875 L 801.039062 1229.019531 L 1228.078125 2035.570312 L 2034.628906 1608.519531 Z M 1607.589844 801.96875 "/>
<path fill-rule="evenodd" fill="rgb(100%, 100%, 100%)" fill-opacity="1" d="M 1601.46875 821.871094 L 820.933594 1235.140625 L 1234.199219 2015.671875 L 2014.738281 1602.398438 Z M 1601.46875 821.871094 "/>
<path fill-rule="evenodd" fill="rgb(100%, 100%, 100%)" fill-opacity="1" d="M 1595.351562 841.769531 L 840.832031 1241.261719 L 1240.328125 1995.773438 L 1994.839844 1596.28125 Z M 1595.351562 841.769531 "/>
<path fill-rule="evenodd" fill="rgb(100%, 100%, 100%)" fill-opacity="1" d="M 1589.21875 861.660156 L 860.726562 1247.378906 L 1246.449219 1975.878906 L 1974.941406 1590.160156 Z M 1589.21875 861.660156 "/>
<path fill-rule="evenodd" fill="rgb(100%, 100%, 100%)" fill-opacity="1" d="M 1583.101562 881.558594 L 880.625 1253.5 L 1252.570312 1955.980469 L 1955.050781 1584.039062 Z M 1583.101562 881.558594 "/>
<path fill-rule="evenodd" fill="rgb(100%, 100%, 100%)" fill-opacity="1" d="M 1576.980469 901.460938 L 900.519531 1259.621094 L 1258.691406 1936.085938 L 1935.148438 1577.921875 Z M 1576.980469 901.460938 "/>
<path fill-rule="evenodd" fill="rgb(100%, 100%, 100%)" fill-opacity="1" d="M 1570.859375 921.351562 L 920.417969 1265.75 L 1264.808594 1916.1875 L 1915.25 1571.800781 Z M 1570.859375 921.351562 "/>
<path fill-rule="evenodd" fill="rgb(100%, 100%, 100%)" fill-opacity="1" d="M 1564.738281 941.25 L 940.316406 1271.871094 L 1270.929688 1896.292969 L 1895.359375 1565.679688 Z M 1564.738281 941.25 "/>
<path fill-rule="evenodd" fill="rgb(100%, 100%, 100%)" fill-opacity="1" d="M 1558.621094 961.148438 L 960.210938 1277.988281 L 1277.050781 1876.394531 L 1875.460938 1559.558594 Z M 1558.621094 961.148438 "/>
<path fill-rule="evenodd" fill="rgb(100%, 100%, 100%)" fill-opacity="1" d="M 1552.5 981.039062 L 980.109375 1284.109375 L 1283.171875 1856.496094 L 1855.558594 1553.429688 Z M 1552.5 981.039062 "/>
<path fill-rule="evenodd" fill="rgb(100%, 100%, 100%)" fill-opacity="1" d="M 1546.378906 1000.941406 L 1000 1290.230469 L 1289.289062 1836.601562 L 1835.671875 1547.308594 Z M 1546.378906 1000.941406 "/>
<path fill-rule="evenodd" fill="rgb(100%, 100%, 100%)" fill-opacity="1" d="M 1540.261719 1020.839844 L 1019.898438 1296.351562 L 1295.410156 1816.710938 L 1815.769531 1541.191406 Z M 1540.261719 1020.839844 "/>
<path fill-rule="evenodd" fill="rgb(100%, 100%, 100%)" fill-opacity="1" d="M 1534.140625 1040.730469 L 1039.800781 1302.46875 L 1301.539062 1796.808594 L 1795.871094 1535.070312 Z M 1534.140625 1040.730469 "/>
<path fill-rule="evenodd" fill="rgb(100%, 100%, 100%)" fill-opacity="1" d="M 1528.011719 1060.628906 L 1059.691406 1308.589844 L 1307.660156 1776.910156 L 1775.980469 1528.949219 Z M 1528.011719 1060.628906 "/>
<path fill-rule="evenodd" fill="rgb(100%, 100%, 100%)" fill-opacity="1" d="M 1521.890625 1080.53125 L 1079.589844 1314.710938 L 1313.78125 1757.019531 L 1756.078125 1522.828125 Z M 1521.890625 1080.53125 "/>
<path fill-rule="evenodd" fill="rgb(100%, 100%, 100%)" fill-opacity="1" d="M 1515.769531 1100.421875 L 1099.488281 1320.828125 L 1319.898438 1737.121094 L 1736.179688 1516.710938 Z M 1515.769531 1100.421875 "/>
<path fill-rule="evenodd" fill="rgb(100%, 100%, 100%)" fill-opacity="1" d="M 1509.648438 1120.320312 L 1119.378906 1326.960938 L 1326.019531 1717.21875 L 1716.289062 1510.589844 Z M 1509.648438 1120.320312 "/>
<path fill-rule="evenodd" fill="rgb(100%, 100%, 100%)" fill-opacity="1" d="M 1503.53125 1140.21875 L 1139.28125 1333.078125 L 1332.140625 1697.320312 L 1696.390625 1504.46875 Z M 1503.53125 1140.21875 "/>
<path fill-rule="evenodd" fill="rgb(100%, 100%, 100%)" fill-opacity="1" d="M 1497.410156 1160.109375 L 1159.179688 1339.199219 L 1338.261719 1677.429688 L 1676.488281 1498.339844 Z M 1497.410156 1160.109375 "/>
<path fill-rule="evenodd" fill="rgb(100%, 100%, 100%)" fill-opacity="1" d="M 1491.289062 1180.011719 L 1179.078125 1345.320312 L 1344.378906 1657.53125 L 1656.601562 1492.21875 Z M 1491.289062 1180.011719 "/>
<path fill-rule="evenodd" fill="rgb(100%, 100%, 100%)" fill-opacity="1" d="M 1485.171875 1199.910156 L 1198.96875 1351.441406 L 1350.5 1637.640625 L 1636.699219 1486.101562 Z M 1485.171875 1199.910156 "/>
<path fill-rule="evenodd" fill="rgb(100%, 100%, 100%)" fill-opacity="1" d="M 1479.050781 1219.800781 L 1218.871094 1357.558594 L 1356.628906 1617.738281 L 1616.800781 1479.980469 Z M 1479.050781 1219.800781 "/>
<path fill-rule="evenodd" fill="rgb(100%, 100%, 100%)" fill-opacity="1" d="M 1472.921875 1239.699219 L 1238.761719 1363.679688 L 1362.75 1597.839844 L 1596.910156 1473.859375 Z M 1472.921875 1239.699219 "/>
<path fill-rule="evenodd" fill="rgb(100%, 100%, 100%)" fill-opacity="1" d="M 1466.800781 1259.601562 L 1258.660156 1369.800781 L 1368.871094 1577.941406 L 1577.011719 1467.738281 Z M 1466.800781 1259.601562 "/>
<path fill-rule="evenodd" fill="rgb(100%, 100%, 100%)" fill-opacity="1" d="M 1460.679688 1279.488281 L 1278.558594 1375.921875 L 1374.988281 1558.050781 L 1557.109375 1461.621094 Z M 1460.679688 1279.488281 "/>
<path fill-rule="evenodd" fill="rgb(100%, 100%, 100%)" fill-opacity="1" d="M 1454.558594 1299.390625 L 1298.460938 1382.039062 L 1381.109375 1538.148438 L 1537.21875 1455.5 Z M 1454.558594 1299.390625 "/>
<path fill-rule="evenodd" fill="rgb(100%, 100%, 100%)" fill-opacity="1" d="M 1448.441406 1319.289062 L 1318.351562 1388.171875 L 1387.230469 1518.261719 L 1517.320312 1449.378906 Z M 1448.441406 1319.289062 "/>
<path fill-rule="evenodd" fill="rgb(100%, 100%, 100%)" fill-opacity="1" d="M 1442.320312 1339.179688 L 1338.25 1394.289062 L 1393.351562 1498.359375 L 1497.421875 1443.261719 Z M 1442.320312 1339.179688 "/>
<path fill-rule="evenodd" fill="rgb(100%, 100%, 100%)" fill-opacity="1" d="M 1436.199219 1359.078125 L 1358.140625 1400.410156 L 1399.46875 1478.460938 L 1477.53125 1437.128906 Z M 1436.199219 1359.078125 "/>
<path fill-rule="evenodd" fill="rgb(100%, 100%, 100%)" fill-opacity="1" d="M 1430.078125 1378.980469 L 1378.039062 1406.53125 L 1405.589844 1458.558594 L 1457.628906 1431.011719 Z M 1430.078125 1378.980469 "/>
<path fill-rule="evenodd" fill="rgb(100%, 100%, 100%)" fill-opacity="1" d="M 1423.960938 1398.871094 L 1397.941406 1412.648438 L 1411.710938 1438.671875 L 1437.730469 1424.890625 Z M 1423.960938 1398.871094 "/>
<path fill-rule="evenodd" fill="rgb(29.00238%, 17.993164%, 39.988708%)" fill-opacity="1" d="M 1441.960938 2577.417969 C 1492.839844 2579.929688 1532.558594 2585.273438 1585.03125 2582.871094 C 1621.699219 2581.1875 1690.46875 2566.179688 1717.25 2573.167969 L 1724.320312 2601.445312 C 1673.851562 2632.609375 1551.539062 2629.195312 1490.191406 2620.453125 C 1449.398438 2614.644531 1445.121094 2616.4375 1441.960938 2577.417969 Z M 1303.371094 2577.386719 C 1299.109375 2626.011719 1255.988281 2625.859375 1175.320312 2626.390625 C 1124.261719 2626.726562 1060.769531 2622.117188 1021.988281 2602.917969 C 1025.039062 2552.222656 1045.871094 2574.625 1141.441406 2581.621094 C 1199.429688 2585.863281 1246.851562 2581.335938 1303.371094 2577.386719 Z M 1550.910156 2464.445312 C 1554.820312 2448.894531 1562.390625 2436.695312 1585.398438 2432.179688 C 1605.878906 2428.15625 1620.789062 2430.328125 1634.820312 2442.996094 C 1659.660156 2465.433594 1659.019531 2508.980469 1657.898438 2548.074219 L 1545.191406 2556.488281 C 1543.109375 2534.183594 1534.050781 2474.253906 1550.910156 2464.445312 Z M 1202.421875 2466.664062 L 1204.160156 2554.867188 C 1171.148438 2555.398438 1116.308594 2559.011719 1090.570312 2548.25 C 1089.851562 2506.734375 1088.519531 2458.804688 1116.53125 2439.671875 C 1152.820312 2414.886719 1186.769531 2438.316406 1202.421875 2466.664062 Z M 1528.238281 2555.019531 C 1501.671875 2554.566406 1442.480469 2555.605469 1424.878906 2537.4375 C 1414.980469 2517.183594 1412.320312 2467.191406 1426.328125 2449.035156 C 1450.160156 2433.070312 1485.160156 2449.726562 1512.429688 2441.730469 C 1529.808594 2436.628906 1546.371094 2408.664062 1569.480469 2400.300781 C 1632.019531 2377.679688 1661.550781 2425.316406 1672.910156 2431.6875 C 1691.480469 2442.105469 1727.308594 2423.941406 1721.230469 2509.402344 C 1719.019531 2540.53125 1704.550781 2544.398438 1673.089844 2543.304688 C 1673.160156 2477.589844 1668.53125 2411.851562 1596.089844 2415.414062 C 1520.101562 2419.148438 1527.289062 2488.441406 1528.238281 2555.019531 Z M 1073.171875 2543.628906 C 994.191406 2546.730469 1032.429688 2449.867188 1039.589844 2443.863281 C 1063.070312 2427.207031 1060.871094 2448.621094 1088.371094 2422.1875 C 1144.671875 2368.066406 1206.308594 2402.386719 1229.730469 2443.277344 C 1252.28125 2443.25 1305.441406 2433.472656 1322.300781 2450.085938 C 1328.929688 2456.621094 1348.480469 2534.292969 1306.230469 2547.457031 L 1222.761719 2554.53125 C 1215.070312 2523.027344 1243.070312 2420.152344 1153.371094 2415.4375 C 1074.921875 2411.308594 1081.660156 2476.640625 1073.171875 2543.628906 Z M 1071.53125 2006.910156 C 1078.011719 2004.277344 1249.78125 1977.097656 1262.730469 1976.394531 C 1385.941406 2165.46875 1450.039062 2010.25 1491.929688 1977.433594 L 1671.609375 2008.082031 C 1693.230469 2041.199219 1702.78125 2351.339844 1696.730469 2408.171875 C 1666.140625 2403.101562 1645.269531 2345.4375 1562.871094 2372.625 C 1528.46875 2383.972656 1526.511719 2398.644531 1507.539062 2409.578125 C 1488.839844 2420.359375 1452.679688 2413.113281 1427.558594 2414.734375 C 1417.691406 2383.480469 1434.230469 2348.121094 1329.878906 2369.429688 L 1319.179688 2412.269531 C 1210.308594 2427.351562 1251.878906 2393.667969 1186.148438 2372.570312 C 1103.929688 2346.175781 1089.871094 2398.589844 1047.21875 2408.421875 C 1049.578125 2303.230469 1046.339844 2100.3125 1071.53125 2006.910156 Z M 1738.050781 2306.585938 C 1794.089844 2335.019531 1817.539062 2348 1894.328125 2353.152344 C 1937.96875 2424.253906 2016.871094 2490.898438 2139.671875 2467.78125 C 2279.511719 2441.457031 2269.28125 2306.070312 2317.019531 2281.542969 C 2346.230469 2335.644531 2273.640625 2480.863281 2251.820312 2509.445312 C 2211.28125 2562.539062 2146.480469 2605.960938 2048.988281 2616.847656 C 1953.761719 2627.476562 1863.601562 2596.984375 1804.210938 2552.183594 C 1737.25 2501.664062 1778.019531 2523.410156 1757.109375 2445.9375 C 1745.839844 2404.15625 1733.558594 2432.402344 1738.050781 2306.585938 Z M 1832.371094 2305.929688 C 1844.039062 2296.445312 1915.921875 2269.570312 1936.660156 2259.664062 C 1974.609375 2241.539062 2006.96875 2217.34375 2041.398438 2204.921875 C 2039.21875 2313.167969 1878.941406 2320.019531 1832.371094 2305.929688 Z M 705.863281 2203.785156 C 740.765625 2220.929688 769.855469 2240.09375 808.277344 2258.707031 C 835.320312 2271.804688 896.289062 2291.742188 913.164062 2307.03125 C 830.644531 2324.988281 694.765625 2291.378906 705.863281 2203.785156 Z M 709.324219 2170.371094 C 684.488281 2145.21875 705.679688 2100.527344 718.808594 2063.726562 C 733.289062 2023.132812 746.160156 1991.195312 760.609375 1959.128906 C 802.070312 1974.300781 819.125 2001.140625 826.003906 2058.871094 C 821.453125 2083.746094 799.976562 2145.175781 790.039062 2171.683594 C 783.445312 2189.265625 782.832031 2194.199219 771.089844 2205.378906 C 752.914062 2199.988281 713.460938 2174.351562 712.988281 2172.863281 C 712.398438 2170.988281 710.511719 2171.246094 709.324219 2170.371094 Z M 1923.628906 2032.335938 C 1930.640625 1995.242188 1958.140625 1969.988281 1983.789062 1959.46875 C 1998.148438 1980.171875 2016.429688 2034.355469 2026.5 2062.871094 C 2038.128906 2095.804688 2062.390625 2146.707031 2038.660156 2168.484375 L 1972.871094 2208.292969 C 1955.230469 2189.652344 1947.960938 2147.296875 1938.949219 2122.230469 C 1929.210938 2095.101562 1910.078125 2060.441406 1923.628906 2032.335938 Z M 1724.339844 2044.839844 C 1743.628906 2028.488281 1821.761719 2001.777344 1853.929688 1980.722656 C 1889.800781 1957.238281 1915.289062 1891.808594 1947.789062 1883.625 L 1973.320312 1935.585938 C 1957.460938 1957.5625 1935.71875 1962.039062 1920.269531 1986.824219 C 1907.859375 2006.730469 1899.089844 2035.617188 1901.929688 2066.804688 C 1906.410156 2115.804688 1941.621094 2169.484375 1947.550781 2219.644531 C 1935.75 2229.367188 1792.761719 2309.90625 1763.488281 2270.667969 C 1727.621094 2222.582031 1727.171875 2115.425781 1724.339844 2044.839844 Z M 893.769531 1982.15625 C 931.335938 2003.710938 990.328125 2020.234375 1023.269531 2044.839844 C 1023.550781 2113.574219 1018.488281 2228.410156 981.433594 2271.390625 C 951.890625 2305.660156 826.789062 2241.242188 797.449219 2219.644531 C 805.304688 2170.449219 842.296875 2108.136719 844.320312 2061.402344 C 847.929688 1978.179688 792.828125 1960.84375 772.566406 1935.585938 C 780.554688 1915.734375 788.386719 1894.832031 803.863281 1883.496094 C 838.363281 1901.628906 853.691406 1959.160156 893.769531 1982.15625 Z M 1292.078125 1902.738281 L 1330.808594 1897.605469 C 1400.5 1888.335938 1422.109375 1902.039062 1484.820312 1907.257812 C 1480.910156 1959.609375 1423.648438 2044.945312 1372.5 2043.300781 C 1325.078125 2041.777344 1272.5 1961.617188 1262.609375 1908.933594 Z M 1074.410156 1987.003906 C 1083.960938 1907.890625 1127.511719 1711.949219 1153.640625 1647.589844 C 1226.378906 1664.929688 1287.328125 1687.609375 1371.839844 1687.878906 C 1463.691406 1688.179688 1513.339844 1661.558594 1590.480469 1649.699219 C 1614.179688 1691.898438 1663.238281 1922.671875 1670.960938 1986.945312 C 1629.089844 1984.378906 1527.359375 1974.550781 1496.871094 1957.125 L 1515.191406 1910.152344 C 1568.480469 1903.765625 1624.871094 1878.53125 1628.121094 1838.789062 C 1601.191406 1826.449219 1603.449219 1844.988281 1582.878906 1862.445312 C 1527.398438 1909.542969 1434.441406 1870.519531 1377.46875 1869.65625 C 1328.320312 1868.90625 1278.238281 1889.550781 1230.011719 1885.714844 C 1208.78125 1884.023438 1182.679688 1875.1875 1168.769531 1865.601562 C 1146.820312 1850.484375 1145.308594 1825.71875 1127.5 1837.597656 C 1120.191406 1845.398438 1116.179688 1830.648438 1124.328125 1854.6875 C 1135.339844 1887.164062 1197.179688 1906.472656 1233.898438 1910.1875 L 1251.691406 1957.4375 C 1221.121094 1974.578125 1115.589844 1985.242188 1074.410156 1987.003906 Z M 1818.691406 1967.050781 C 1791.308594 1980.074219 1746.761719 2004.324219 1720.371094 2009.824219 L 1668.289062 1752.148438 C 1747.078125 1798.160156 1767.789062 1782.320312 1810.800781 1775.230469 C 1827.390625 1810.019531 1876.609375 1849.507812 1892.519531 1891.886719 C 1870.808594 1924.746094 1857.578125 1948.542969 1818.691406 1967.050781 Z M 940.429688 1775.46875 C 1010.308594 1792.628906 1026.269531 1776.699219 1081.371094 1750.621094 L 1030.089844 2009.660156 C 1010.941406 2009.554688 944.988281 1976.710938 926.101562 1966.441406 C 889.175781 1946.367188 873.386719 1923.050781 853.472656 1891.886719 C 865.402344 1863.253906 920.378906 1795 940.429688 1775.46875 Z M 956.84375 1751.710938 C 951.535156 1710.488281 989.171875 1676.800781 1008.148438 1659.230469 C 1019.628906 1648.601562 1033.71875 1635.300781 1046.128906 1625.859375 C 1073.398438 1605.109375 1064.730469 1617.671875 1092.550781 1620.429688 L 1112.710938 1632.070312 C 1111.839844 1646.601562 1105.789062 1672.921875 1100.800781 1686.480469 C 1084.339844 1731.199219 1005.371094 1759.160156 973.070312 1755.890625 C 960.878906 1754.660156 961.96875 1754.019531 956.84375 1751.710938 Z M 1653.960938 1624.671875 C 1675.871094 1613.589844 1680.339844 1613.5 1698.351562 1625.28125 C 1711.558594 1633.929688 1726.519531 1647.148438 1737.519531 1657.46875 C 1755.570312 1674.390625 1792.988281 1710.460938 1788.339844 1750.28125 C 1787.070312 1751.171875 1785.210938 1751.890625 1784.109375 1752.238281 C 1772.238281 1756.078125 1769.058594 1757.101562 1755.078125 1755.488281 C 1732.089844 1752.839844 1698.539062 1737.160156 1679.710938 1726.480469 C 1654.839844 1712.390625 1655.898438 1711.601562 1648.550781 1684.671875 C 1642.789062 1663.570312 1636.179688 1651.070312 1635.71875 1629.980469 Z M 1979.308594 1378.011719 C 1988.089844 1346.109375 2003.660156 1315.410156 2013.101562 1276.710938 C 2033.019531 1195.121094 2055.480469 946.289062 2059.710938 935.320312 C 2064.800781 922.160156 2058.550781 932.679688 2067.460938 922.910156 C 2082.5 951.738281 2131.980469 996.460938 2137.769531 1028.949219 C 2143.851562 1063.078125 2086.171875 1260.539062 2070.96875 1301.671875 C 2053.53125 1348.871094 2030.378906 1363.570312 1979.308594 1378.011719 Z M 767.652344 1376.851562 C 670.273438 1351.5 671.101562 1292.378906 636.039062 1158.519531 C 593.382812 995.679688 599.050781 1034.261719 683.6875 924.738281 C 684.546875 925.859375 685.355469 927.601562 685.726562 928.460938 C 700.347656 962.308594 683.890625 914.398438 690.339844 940.25 L 714.902344 1161.398438 C 719.511719 1199.441406 725.289062 1236.761719 733.992188 1272.949219 C 743.65625 1313.101562 758.097656 1341.511719 767.652344 1376.851562 Z M 903.214844 661.769531 C 991.816406 832.878906 1141.441406 1044.660156 1377.441406 1041.910156 C 1663.460938 1038.570312 1813.789062 734.128906 1920.480469 517.519531 C 1926.988281 504.300781 1934.039062 487.210938 1945.558594 475.96875 C 1965.148438 497.109375 1994.679688 563.570312 2005.828125 597.179688 C 2046.800781 720.660156 2017.140625 948.800781 2002.570312 1075.488281 C 1990.839844 1177.558594 1982.75 1278.878906 1939.589844 1361.738281 C 1900.960938 1435.910156 1832.230469 1500.5 1751.960938 1528.238281 L 1763.421875 1260.339844 C 1766.46875 1252.691406 1861.390625 1206.820312 1782.660156 1094.339844 C 1799.851562 1083.519531 1812.738281 1082.570312 1827.460938 1074.378906 C 1834.351562 1070.550781 1833.890625 1070.421875 1837.351562 1067.101562 L 1831.011719 1043.011719 C 1806.878906 1046.070312 1685.449219 1092.949219 1674.511719 1105.269531 C 1677.128906 1113.230469 1677.519531 1115.300781 1682.230469 1123.019531 L 1694.53125 1140.640625 C 1681.03125 1160.511719 1685.980469 1198.039062 1695.03125 1219.449219 C 1707.828125 1249.691406 1724.320312 1245.96875 1742.769531 1263.691406 L 1731.410156 1542.160156 C 1646.429688 1589.761719 1493.128906 1648.71875 1371.949219 1647.921875 C 1236.46875 1647.03125 1119.71875 1590.46875 1016.789062 1543.589844 L 1005.300781 1263.679688 C 1032.109375 1239.789062 1051 1246.378906 1059.449219 1197.25 C 1064.101562 1170.238281 1056.851562 1159.738281 1057.628906 1142.148438 C 1058.929688 1113.25 1055.359375 1144.199219 1066.289062 1121.839844 C 1074.769531 1104.5 1070.828125 1118.089844 1073.511719 1097.890625 C 1043.199219 1092.03125 988.492188 1067.921875 957.878906 1054.609375 C 940.304688 1046.96875 896.789062 1034.640625 915.144531 1068.640625 C 920.0625 1077.738281 953.6875 1086.601562 965.726562 1094.339844 C 921.324219 1154.359375 918.027344 1208.140625 985.046875 1258.171875 L 996.492188 1528.210938 C 962.6875 1517.699219 905.867188 1478.46875 883.101562 1457.429688 C 769.664062 1352.609375 763.628906 1236.960938 745.113281 1071.128906 C 724.574219 887.191406 691.164062 692.628906 770.359375 531.03125 L 801.0625 478.921875 C 801.457031 477.070312 802.875 476.871094 803.863281 475.929688 C 814.226562 488.820312 889.765625 635.789062 903.214844 661.769531 Z M 1900.519531 484.359375 C 1877.480469 538.269531 1840.089844 603.191406 1811.710938 659.261719 C 1729.921875 820.828125 1581.191406 1010.878906 1371.949219 1009.089844 C 1237.601562 1007.941406 1151.429688 938.96875 1066.949219 853.148438 C 1009.71875 795.019531 878.570312 570.429688 847.894531 485.410156 L 824.539062 438.820312 C 838.710938 407.921875 896 343.828125 920.988281 321.109375 C 1164.039062 100.070312 1672.539062 125.691406 1862.898438 357.660156 C 1930.691406 440.28125 1933.839844 432.039062 1900.519531 484.359375 Z M 1776.011719 1596.898438 C 1838.308594 1555.839844 1879.640625 1543.101562 1932.160156 1490.628906 C 1953.640625 1469.171875 1944.710938 1463.78125 1980.011719 1451.261719 C 2094.75 1410.550781 2113.628906 1397.628906 2150.429688 1276.710938 C 2168.929688 1215.921875 2221 1058.238281 2200.648438 998.148438 C 2189.410156 964.960938 2149.128906 918.089844 2128.929688 894.710938 C 2077.828125 835.550781 2094.710938 858.871094 2094.609375 761.121094 C 2094.488281 632.589844 2077.019531 575.898438 2026.761719 477.761719 C 1967.351562 361.738281 1886.078125 268.160156 1782.101562 203.351562 C 1748.339844 182.308594 1708.519531 163.421875 1667.539062 148.140625 C 1579.089844 115.160156 1475.058594 101.609375 1371.980469 101.679688 C 1047.210938 101.890625 853.460938 229.621094 717.753906 484.039062 C 670.863281 571.941406 653.25 650.089844 653.527344 766.578125 C 653.769531 870.101562 667.867188 834.929688 614.039062 899.429688 C 503.929688 1031.371094 535.550781 1052.359375 599.503906 1282.25 C 634.363281 1407.558594 663.460938 1408.679688 773.023438 1452.761719 C 799.664062 1463.46875 818.914062 1498.820312 867.726562 1533.148438 C 900.417969 1556.148438 937.757812 1572.699219 971.109375 1596.898438 C 947.820312 1628.53125 914.023438 1648.839844 894.316406 1703.851562 C 881.429688 1739.820312 880.75 1740.480469 861.320312 1763.640625 C 846.714844 1781.039062 835.367188 1798.550781 822.3125 1812.121094 C 768.964844 1827.921875 758.679688 1811.730469 731.273438 1862.851562 C 716.027344 1891.289062 698.214844 1930.1875 686.445312 1960.234375 C 660.761719 2025.804688 619.558594 2104.328125 634.46875 2182.476562 C 644.953125 2237.449219 623.9375 2305.617188 745.324219 2354.449219 C 877.46875 2407.601562 920.238281 2367.722656 981.761719 2352.238281 C 981.140625 2372.566406 983.175781 2389.792969 976.808594 2408.582031 C 971.53125 2424.15625 965.859375 2428.757812 961.910156 2448.785156 C 954.9375 2484.164062 963.542969 2517.140625 961.347656 2546.914062 C 958.5625 2584.6875 943.296875 2602.105469 970.765625 2637.152344 C 1015.878906 2694.726562 1186.628906 2690.375 1251.441406 2682.636719 C 1323.820312 2673.992188 1360.441406 2659.042969 1371.761719 2589.714844 C 1380.921875 2603.746094 1376.46875 2600.113281 1383.339844 2617.90625 C 1386.109375 2625.066406 1390.378906 2634.09375 1394.230469 2639.890625 C 1436.769531 2703.992188 1631.5 2689.503906 1697.878906 2676.097656 C 1750.21875 2665.53125 1757.988281 2655.992188 1787.140625 2625.410156 C 1839.679688 2649.207031 1879.339844 2673.675781 1951.339844 2683.351562 C 2341.011719 2735.710938 2424.960938 2326.59375 2377.949219 2246.117188 C 2354.019531 2205.160156 2283.359375 2188.367188 2241.558594 2264.273438 C 2213.761719 2314.761719 2200.640625 2372.972656 2152.039062 2393.640625 C 2095.511719 2417.6875 2017.511719 2397.394531 1989.140625 2361.671875 C 2018.929688 2341.847656 2080.570312 2325.738281 2102.769531 2256.167969 C 2109.300781 2235.679688 2108.261719 2229.386719 2108.550781 2208.726562 C 2108.988281 2177.75 2112.828125 2184.539062 2116.519531 2159.324219 C 2124.121094 2107.390625 2059.160156 1958.785156 2038.871094 1913.339844 C 2013.519531 1856.5625 1998.539062 1812.769531 1922.570312 1815.519531 C 1915.648438 1799.789062 1895.949219 1777.101562 1884.011719 1762.328125 C 1827.289062 1692.148438 1876.179688 1703.46875 1794.898438 1621.96875 C 1782.949219 1609.988281 1780.75 1608.421875 1776.011719 1596.898438 "/>
<path fill-rule="evenodd" fill="rgb(100%, 100%, 100%)" fill-opacity="1" d="M 1168.039062 1317.488281 L 1580.210938 1317.621094 C 1578.480469 1399.371094 1578.808594 1433.269531 1533.429688 1479.839844 C 1499.679688 1514.460938 1438.808594 1529.328125 1377.5 1529.691406 C 1312.328125 1530.078125 1257.578125 1516.390625 1218.589844 1482.660156 C 1173.628906 1443.761719 1166.839844 1396.078125 1168.039062 1317.488281 Z M 996.492188 1528.210938 L 985.046875 1258.171875 C 918.027344 1208.140625 921.324219 1154.359375 965.726562 1094.339844 C 953.6875 1086.601562 920.0625 1077.738281 915.144531 1068.640625 C 896.789062 1034.640625 940.304688 1046.96875 957.878906 1054.609375 C 988.492188 1067.921875 1043.199219 1092.03125 1073.511719 1097.890625 C 1070.828125 1118.089844 1074.769531 1104.5 1066.289062 1121.839844 C 1055.359375 1144.199219 1058.929688 1113.25 1057.628906 1142.148438 C 1056.851562 1159.738281 1064.101562 1170.238281 1059.449219 1197.25 C 1051 1246.378906 1032.109375 1239.789062 1005.300781 1263.679688 L 1016.789062 1543.589844 C 1119.71875 1590.46875 1236.46875 1647.03125 1371.949219 1647.921875 C 1493.128906 1648.71875 1646.429688 1589.761719 1731.410156 1542.160156 L 1742.769531 1263.691406 C 1724.320312 1245.96875 1707.828125 1249.691406 1695.03125 1219.449219 C 1685.980469 1198.039062 1681.03125 1160.511719 1694.53125 1140.640625 L 1682.230469 1123.019531 C 1677.519531 1115.300781 1677.128906 1113.230469 1674.511719 1105.269531 C 1685.449219 1092.949219 1806.878906 1046.070312 1831.011719 1043.011719 L 1837.351562 1067.101562 C 1833.890625 1070.421875 1834.351562 1070.550781 1827.460938 1074.378906 C 1812.738281 1082.570312 1799.851562 1083.519531 1782.660156 1094.339844 C 1861.390625 1206.820312 1766.46875 1252.691406 1763.421875 1260.339844 L 1751.960938 1528.238281 C 1832.230469 1500.5 1900.960938 1435.910156 1939.589844 1361.738281 C 1982.75 1278.878906 1990.839844 1177.558594 2002.570312 1075.488281 C 2017.140625 948.800781 2046.800781 720.660156 2005.828125 597.179688 C 1994.679688 563.570312 1965.148438 497.109375 1945.558594 475.96875 C 1934.039062 487.210938 1926.988281 504.300781 1920.480469 517.519531 C 1813.789062 734.128906 1663.460938 1038.570312 1377.441406 1041.910156 C 1141.441406 1044.660156 991.816406 832.878906 903.214844 661.769531 C 889.765625 635.789062 814.226562 488.820312 803.863281 475.929688 C 802.875 476.871094 801.457031 477.070312 801.0625 478.921875 L 770.359375 531.03125 C 691.164062 692.628906 724.574219 887.191406 745.113281 1071.128906 C 763.628906 1236.960938 769.664062 1352.609375 883.101562 1457.429688 C 905.867188 1478.46875 962.6875 1517.699219 996.492188 1528.210938 "/>
<path fill-rule="evenodd" fill="rgb(42.993164%, 29.00238%, 65.039062%)" fill-opacity="1" d="M 847.894531 485.410156 C 878.570312 570.429688 1009.71875 795.019531 1066.949219 853.148438 C 1151.429688 938.96875 1237.601562 1007.941406 1371.949219 1009.089844 C 1581.191406 1010.878906 1729.921875 820.828125 1811.710938 659.261719 C 1840.089844 603.191406 1877.480469 538.269531 1900.519531 484.359375 C 1879.351562 481.230469 1847.988281 422.5 1799.558594 382.671875 C 1763.710938 353.199219 1726.570312 321.980469 1675.390625 299.121094 C 1588.550781 260.339844 1437.460938 216.199219 1325.078125 238.488281 C 1548.628906 346.421875 1260.808594 622.878906 1025.699219 555.929688 C 903.265625 521.058594 933.71875 428.28125 934.527344 396.589844 C 905.832031 418.070312 865.847656 480.96875 847.894531 485.410156 "/>
<path fill-rule="evenodd" fill="rgb(100%, 100%, 100%)" fill-opacity="1" d="M 1071.53125 2006.910156 C 1046.339844 2100.3125 1049.578125 2303.230469 1047.21875 2408.421875 C 1089.871094 2398.589844 1103.929688 2346.175781 1186.148438 2372.570312 C 1251.878906 2393.667969 1210.308594 2427.351562 1319.179688 2412.269531 L 1329.878906 2369.429688 C 1434.230469 2348.121094 1417.691406 2383.480469 1427.558594 2414.734375 C 1452.679688 2413.113281 1488.839844 2420.359375 1507.539062 2409.578125 C 1526.511719 2398.644531 1528.46875 2383.972656 1562.871094 2372.625 C 1645.269531 2345.4375 1666.140625 2403.101562 1696.730469 2408.171875 C 1702.78125 2351.339844 1693.230469 2041.199219 1671.609375 2008.082031 L 1491.929688 1977.433594 C 1450.039062 2010.25 1385.941406 2165.46875 1262.730469 1976.394531 C 1249.78125 1977.097656 1078.011719 2004.277344 1071.53125 2006.910156 "/>
<path fill-rule="evenodd" fill="rgb(68.943787%, 59.959412%, 84.959412%)" fill-opacity="1" d="M 847.894531 485.410156 C 865.847656 480.96875 905.832031 418.070312 934.527344 396.589844 C 933.71875 428.28125 903.265625 521.058594 1025.699219 555.929688 C 1260.808594 622.878906 1548.628906 346.421875 1325.078125 238.488281 C 1437.460938 216.199219 1588.550781 260.339844 1675.390625 299.121094 C 1726.570312 321.980469 1763.710938 353.199219 1799.558594 382.671875 C 1847.988281 422.5 1879.351562 481.230469 1900.519531 484.359375 C 1933.839844 432.039062 1930.691406 440.28125 1862.898438 357.660156 C 1672.539062 125.691406 1164.039062 100.070312 920.988281 321.109375 C 896 343.828125 838.710938 407.921875 824.539062 438.820312 L 847.894531 485.410156 "/>
<path fill-rule="evenodd" fill="rgb(100%, 100%, 100%)" fill-opacity="1" d="M 1074.410156 1987.003906 C 1115.589844 1985.242188 1221.121094 1974.578125 1251.691406 1957.4375 L 1233.898438 1910.1875 C 1197.179688 1906.472656 1135.339844 1887.164062 1124.328125 1854.6875 C 1116.179688 1830.648438 1120.191406 1845.398438 1127.5 1837.597656 C 1145.308594 1825.71875 1146.820312 1850.484375 1168.769531 1865.601562 C 1182.679688 1875.1875 1208.78125 1884.023438 1230.011719 1885.714844 C 1278.238281 1889.550781 1328.320312 1868.90625 1377.46875 1869.65625 C 1434.441406 1870.519531 1527.398438 1909.542969 1582.878906 1862.445312 C 1603.449219 1844.988281 1601.191406 1826.449219 1628.121094 1838.789062 C 1624.871094 1878.53125 1568.480469 1903.765625 1515.191406 1910.152344 L 1496.871094 1957.125 C 1527.359375 1974.550781 1629.089844 1984.378906 1670.960938 1986.945312 C 1663.238281 1922.671875 1614.179688 1691.898438 1590.480469 1649.699219 C 1513.339844 1661.558594 1463.691406 1688.179688 1371.839844 1687.878906 C 1287.328125 1687.609375 1226.378906 1664.929688 1153.640625 1647.589844 C 1127.511719 1711.949219 1083.960938 1907.890625 1074.410156 1987.003906 "/>
<path fill-rule="evenodd" fill="rgb(99.021912%, 99.021912%, 99.021912%)" fill-opacity="1" d="M 1738.050781 2306.585938 C 1733.558594 2432.402344 1745.839844 2404.15625 1757.109375 2445.9375 C 1778.019531 2523.410156 1737.25 2501.664062 1804.210938 2552.183594 C 1863.601562 2596.984375 1953.761719 2627.476562 2048.988281 2616.847656 C 2146.480469 2605.960938 2211.28125 2562.539062 2251.820312 2509.445312 C 2273.640625 2480.863281 2346.230469 2335.644531 2317.019531 2281.542969 C 2269.28125 2306.070312 2279.511719 2441.457031 2139.671875 2467.78125 C 2016.871094 2490.898438 1937.96875 2424.253906 1894.328125 2353.152344 C 1817.539062 2348 1794.089844 2335.019531 1738.050781 2306.585938 "/>
<path fill-rule="evenodd" fill="rgb(99.021912%, 99.021912%, 99.021912%)" fill-opacity="1" d="M 772.566406 1935.585938 C 792.828125 1960.84375 847.929688 1978.179688 844.320312 2061.402344 C 842.296875 2108.136719 805.304688 2170.449219 797.449219 2219.644531 C 826.789062 2241.242188 951.890625 2305.660156 981.433594 2271.390625 C 1018.488281 2228.410156 1023.550781 2113.574219 1023.269531 2044.839844 C 990.328125 2020.234375 931.335938 2003.710938 893.769531 1982.15625 C 853.691406 1959.160156 838.363281 1901.628906 803.863281 1883.496094 C 788.386719 1894.832031 780.554688 1915.734375 772.566406 1935.585938 "/>
<path fill-rule="evenodd" fill="rgb(99.021912%, 99.021912%, 99.021912%)" fill-opacity="1" d="M 1724.339844 2044.839844 C 1727.171875 2115.425781 1727.621094 2222.582031 1763.488281 2270.667969 C 1792.761719 2309.90625 1935.75 2229.367188 1947.550781 2219.644531 C 1941.621094 2169.484375 1906.410156 2115.804688 1901.929688 2066.804688 C 1899.089844 2035.617188 1907.859375 2006.730469 1920.269531 1986.824219 C 1935.71875 1962.039062 1957.460938 1957.5625 1973.320312 1935.585938 L 1947.789062 1883.625 C 1915.289062 1891.808594 1889.800781 1957.238281 1853.929688 1980.722656 C 1821.761719 2001.777344 1743.628906 2028.488281 1724.339844 2044.839844 "/>
<path fill-rule="evenodd" fill="rgb(80.076599%, 27.001953%, 38.989258%)" fill-opacity="1" d="M 1542.421875 1351.089844 L 1204.328125 1350.699219 C 1200.410156 1409.449219 1213.519531 1443.421875 1247.269531 1464.828125 C 1280.070312 1485.628906 1323.070312 1497.46875 1372.058594 1497.449219 C 1473.761719 1497.421875 1551.699219 1464.109375 1542.421875 1351.089844 "/>
<path fill-rule="evenodd" fill="rgb(99.021912%, 99.021912%, 99.021912%)" fill-opacity="1" d="M 940.429688 1775.46875 C 920.378906 1795 865.402344 1863.253906 853.472656 1891.886719 C 873.386719 1923.050781 889.175781 1946.367188 926.101562 1966.441406 C 944.988281 1976.710938 1010.941406 2009.554688 1030.089844 2009.660156 L 1081.371094 1750.621094 C 1026.269531 1776.699219 1010.308594 1792.628906 940.429688 1775.46875 "/>
<path fill-rule="evenodd" fill="rgb(99.021912%, 99.021912%, 99.021912%)" fill-opacity="1" d="M 1720.371094 2009.824219 C 1746.761719 2004.324219 1791.308594 1980.074219 1818.691406 1967.050781 C 1857.578125 1948.542969 1870.808594 1924.746094 1892.519531 1891.886719 C 1876.609375 1849.507812 1827.390625 1810.019531 1810.800781 1775.230469 C 1767.789062 1782.320312 1747.078125 1798.160156 1668.289062 1752.148438 L 1720.371094 2009.824219 "/>
<path fill-rule="evenodd" fill="rgb(31.005859%, 16.992188%, 38.989258%)" fill-opacity="1" d="M 1542.421875 1351.089844 C 1551.699219 1464.109375 1473.761719 1497.421875 1372.058594 1497.449219 C 1323.070312 1497.46875 1280.070312 1485.628906 1247.269531 1464.828125 C 1213.519531 1443.421875 1200.410156 1409.449219 1204.328125 1350.699219 Z M 1168.039062 1317.488281 C 1166.839844 1396.078125 1173.628906 1443.761719 1218.589844 1482.660156 C 1257.578125 1516.390625 1312.328125 1530.078125 1377.5 1529.691406 C 1438.808594 1529.328125 1499.679688 1514.460938 1533.429688 1479.839844 C 1578.808594 1433.269531 1578.480469 1399.371094 1580.210938 1317.621094 L 1168.039062 1317.488281 "/>
<path fill-rule="evenodd" fill="rgb(99.021912%, 99.021912%, 99.021912%)" fill-opacity="1" d="M 1979.308594 1378.011719 C 2030.378906 1363.570312 2053.53125 1348.871094 2070.96875 1301.671875 C 2086.171875 1260.539062 2143.851562 1063.078125 2137.769531 1028.949219 C 2131.980469 996.460938 2082.5 951.738281 2067.460938 922.910156 C 2058.550781 932.679688 2064.800781 922.160156 2059.710938 935.320312 C 2055.480469 946.289062 2033.019531 1195.121094 2013.101562 1276.710938 C 2003.660156 1315.410156 1988.089844 1346.109375 1979.308594 1378.011719 "/>
<path fill-rule="evenodd" fill="rgb(99.021912%, 99.021912%, 99.021912%)" fill-opacity="1" d="M 767.652344 1376.851562 C 758.097656 1341.511719 743.65625 1313.101562 733.992188 1272.949219 C 725.289062 1236.761719 719.511719 1199.441406 714.902344 1161.398438 L 690.339844 940.25 C 683.890625 914.398438 700.347656 962.308594 685.726562 928.460938 C 685.355469 927.601562 684.546875 925.859375 683.6875 924.738281 C 599.050781 1034.261719 593.382812 995.679688 636.039062 1158.519531 C 671.101562 1292.378906 670.273438 1351.5 767.652344 1376.851562 "/>
<path fill-rule="evenodd" fill="rgb(99.021912%, 99.021912%, 99.021912%)" fill-opacity="1" d="M 1528.238281 2555.019531 C 1527.289062 2488.441406 1520.101562 2419.148438 1596.089844 2415.414062 C 1668.53125 2411.851562 1673.160156 2477.589844 1673.089844 2543.304688 C 1704.550781 2544.398438 1719.019531 2540.53125 1721.230469 2509.402344 C 1727.308594 2423.941406 1691.480469 2442.105469 1672.910156 2431.6875 C 1661.550781 2425.316406 1632.019531 2377.679688 1569.480469 2400.300781 C 1546.371094 2408.664062 1529.808594 2436.628906 1512.429688 2441.730469 C 1485.160156 2449.726562 1450.160156 2433.070312 1426.328125 2449.035156 C 1412.320312 2467.191406 1414.980469 2517.183594 1424.878906 2537.4375 C 1442.480469 2555.605469 1501.671875 2554.566406 1528.238281 2555.019531 "/>
<path fill-rule="evenodd" fill="rgb(42.993164%, 29.00238%, 65.039062%)" fill-opacity="1" d="M 1330.808594 1897.605469 L 1340.441406 1998.398438 C 1311.460938 1984.171875 1299.339844 1944.105469 1284.101562 1913.734375 C 1285.21875 1912.71875 1286.148438 1908.796875 1286.488281 1909.871094 C 1289.671875 1919.984375 1290.878906 1904.101562 1292.078125 1902.738281 L 1262.609375 1908.933594 C 1272.5 1961.617188 1325.078125 2041.777344 1372.5 2043.300781 C 1423.648438 2044.945312 1480.910156 1959.609375 1484.820312 1907.257812 C 1422.109375 1902.039062 1400.5 1888.335938 1330.808594 1897.605469 "/>
<path fill-rule="evenodd" fill="rgb(98.046875%, 98.046875%, 99.021912%)" fill-opacity="1" d="M 1073.171875 2543.628906 C 1081.660156 2476.640625 1074.921875 2411.308594 1153.371094 2415.4375 C 1243.070312 2420.152344 1215.070312 2523.027344 1222.761719 2554.53125 L 1306.230469 2547.457031 C 1348.480469 2534.292969 1328.929688 2456.621094 1322.300781 2450.085938 C 1305.441406 2433.472656 1252.28125 2443.25 1229.730469 2443.277344 C 1206.308594 2402.386719 1144.671875 2368.066406 1088.371094 2422.1875 C 1060.871094 2448.621094 1063.070312 2427.207031 1039.589844 2443.863281 C 1032.429688 2449.867188 994.191406 2546.730469 1073.171875 2543.628906 "/>
<path fill-rule="evenodd" fill="rgb(42.993164%, 29.00238%, 65.039062%)" fill-opacity="1" d="M 1923.628906 2032.335938 C 1910.078125 2060.441406 1929.210938 2095.101562 1938.949219 2122.230469 C 1947.960938 2147.296875 1955.230469 2189.652344 1972.871094 2208.292969 L 2038.660156 2168.484375 C 2021.390625 2166.371094 2033.960938 2177.191406 2024.058594 2152.105469 L 2004.039062 2084.691406 C 1994.351562 2055.566406 1980.878906 2028.28125 1971.800781 2002.210938 C 1950.339844 2010.695312 1937.21875 2026.558594 1930.179688 2053.726562 C 1924.648438 2045.597656 1922.71875 2066.390625 1923.628906 2032.335938 "/>
<path fill-rule="evenodd" fill="rgb(41.992188%, 29.00238%, 65.039062%)" fill-opacity="1" d="M 709.324219 2170.371094 C 710.511719 2171.246094 712.398438 2170.988281 712.988281 2172.863281 C 713.460938 2174.351562 752.914062 2199.988281 771.089844 2205.378906 C 782.832031 2194.199219 783.445312 2189.265625 790.039062 2171.683594 C 799.976562 2145.175781 821.453125 2083.746094 826.003906 2058.871094 C 806.320312 2039.363281 805.179688 2015.8125 776.550781 2002.636719 C 751.730469 2034.609375 728.796875 2135.214844 721.648438 2153.148438 C 710.453125 2181.234375 720.746094 2160.996094 709.324219 2170.371094 "/>
<path fill-rule="evenodd" fill="rgb(98.046875%, 98.046875%, 99.021912%)" fill-opacity="1" d="M 1441.960938 2577.417969 C 1445.121094 2616.4375 1449.398438 2614.644531 1490.191406 2620.453125 C 1551.539062 2629.195312 1673.851562 2632.609375 1724.320312 2601.445312 L 1717.25 2573.167969 C 1690.46875 2566.179688 1621.699219 2581.1875 1585.03125 2582.871094 C 1532.558594 2585.273438 1492.839844 2579.929688 1441.960938 2577.417969 "/>
<path fill-rule="evenodd" fill="rgb(99.021912%, 99.021912%, 99.021912%)" fill-opacity="1" d="M 1021.988281 2602.917969 C 1060.769531 2622.117188 1124.261719 2626.726562 1175.320312 2626.390625 C 1255.988281 2625.859375 1299.109375 2626.011719 1303.371094 2577.386719 C 1246.851562 2581.335938 1199.429688 2585.863281 1141.441406 2581.621094 C 1045.871094 2574.625 1025.039062 2552.222656 1021.988281 2602.917969 "/>
<path fill-rule="evenodd" fill="rgb(42.993164%, 29.00238%, 65.039062%)" fill-opacity="1" d="M 1090.570312 2548.25 C 1116.308594 2559.011719 1171.148438 2555.398438 1204.160156 2554.867188 L 1202.421875 2466.664062 C 1189.160156 2455.175781 1165.300781 2445.40625 1137.078125 2449.386719 C 1101.949219 2468.816406 1110.929688 2495.433594 1106.398438 2543.839844 L 1090.570312 2548.25 "/>
<path fill-rule="evenodd" fill="rgb(42.993164%, 29.00238%, 65.039062%)" fill-opacity="1" d="M 1550.910156 2464.445312 C 1534.050781 2474.253906 1543.109375 2534.183594 1545.191406 2556.488281 L 1657.898438 2548.074219 L 1640.941406 2545.820312 C 1640.25 2499.847656 1643.050781 2469.011719 1612.328125 2449.6875 C 1586.269531 2445.605469 1564.621094 2453.074219 1550.910156 2464.445312 "/>
<path fill-rule="evenodd" fill="rgb(42.993164%, 29.00238%, 65.039062%)" fill-opacity="1" d="M 956.84375 1751.710938 C 961.96875 1754.019531 960.878906 1754.660156 973.070312 1755.890625 C 1005.371094 1759.160156 1084.339844 1731.199219 1100.800781 1686.480469 C 1105.789062 1672.921875 1111.839844 1646.601562 1112.710938 1632.070312 L 1092.550781 1620.429688 C 1084.890625 1642.769531 1096.878906 1625.050781 1077.21875 1640.941406 C 1070.351562 1646.488281 1067.058594 1647.808594 1057.898438 1654.511719 C 1000.390625 1696.550781 973.546875 1743.410156 956.84375 1751.710938 "/>
<path fill-rule="evenodd" fill="rgb(42.993164%, 29.00238%, 65.039062%)" fill-opacity="1" d="M 1788.339844 1750.28125 C 1764.039062 1746.28125 1783.328125 1755.519531 1769.691406 1734.578125 C 1762.839844 1724.058594 1763.839844 1723.488281 1756.441406 1715.128906 C 1727.75 1682.71875 1657.660156 1635.789062 1653.960938 1624.671875 L 1635.71875 1629.980469 C 1636.179688 1651.070312 1642.789062 1663.570312 1648.550781 1684.671875 C 1655.898438 1711.601562 1654.839844 1712.390625 1679.710938 1726.480469 C 1698.539062 1737.160156 1732.089844 1752.839844 1755.078125 1755.488281 C 1769.058594 1757.101562 1772.238281 1756.078125 1784.109375 1752.238281 C 1785.210938 1751.890625 1787.070312 1751.171875 1788.339844 1750.28125 "/>
<path fill-rule="evenodd" fill="rgb(98.046875%, 98.046875%, 98.046875%)" fill-opacity="1" d="M 913.164062 2307.03125 C 896.289062 2291.742188 835.320312 2271.804688 808.277344 2258.707031 C 769.855469 2240.09375 740.765625 2220.929688 705.863281 2203.785156 C 694.765625 2291.378906 830.644531 2324.988281 913.164062 2307.03125 "/>
<path fill-rule="evenodd" fill="rgb(98.046875%, 98.046875%, 98.046875%)" fill-opacity="1" d="M 1832.371094 2305.929688 C 1878.941406 2320.019531 2039.21875 2313.167969 2041.398438 2204.921875 C 2006.96875 2217.34375 1974.609375 2241.539062 1936.660156 2259.664062 C 1915.921875 2269.570312 1844.039062 2296.445312 1832.371094 2305.929688 "/>
<path fill-rule="evenodd" fill="rgb(67.96875%, 58.006287%, 84.959412%)" fill-opacity="1" d="M 1923.628906 2032.335938 C 1922.71875 2066.390625 1924.648438 2045.597656 1930.179688 2053.726562 C 1937.21875 2026.558594 1950.339844 2010.695312 1971.800781 2002.210938 C 1980.878906 2028.28125 1994.351562 2055.566406 2004.039062 2084.691406 L 2024.058594 2152.105469 C 2033.960938 2177.191406 2021.390625 2166.371094 2038.660156 2168.484375 C 2062.390625 2146.707031 2038.128906 2095.804688 2026.5 2062.871094 C 2016.429688 2034.355469 1998.148438 1980.171875 1983.789062 1959.46875 C 1958.140625 1969.988281 1930.640625 1995.242188 1923.628906 2032.335938 "/>
<path fill-rule="evenodd" fill="rgb(67.96875%, 58.006287%, 84.959412%)" fill-opacity="1" d="M 709.324219 2170.371094 C 720.746094 2160.996094 710.453125 2181.234375 721.648438 2153.148438 C 728.796875 2135.214844 751.730469 2034.609375 776.550781 2002.636719 C 805.179688 2015.8125 806.320312 2039.363281 826.003906 2058.871094 C 819.125 2001.140625 802.070312 1974.300781 760.609375 1959.128906 C 746.160156 1991.195312 733.289062 2023.132812 718.808594 2063.726562 C 705.679688 2100.527344 684.488281 2145.21875 709.324219 2170.371094 "/>
<path fill-rule="evenodd" fill="rgb(67.96875%, 58.006287%, 84.959412%)" fill-opacity="1" d="M 956.84375 1751.710938 C 973.546875 1743.410156 1000.390625 1696.550781 1057.898438 1654.511719 C 1067.058594 1647.808594 1070.351562 1646.488281 1077.21875 1640.941406 C 1096.878906 1625.050781 1084.890625 1642.769531 1092.550781 1620.429688 C 1064.730469 1617.671875 1073.398438 1605.109375 1046.128906 1625.859375 C 1033.71875 1635.300781 1019.628906 1648.601562 1008.148438 1659.230469 C 989.171875 1676.800781 951.535156 1710.488281 956.84375 1751.710938 "/>
<path fill-rule="evenodd" fill="rgb(67.96875%, 58.006287%, 84.959412%)" fill-opacity="1" d="M 1653.960938 1624.671875 C 1657.660156 1635.789062 1727.75 1682.71875 1756.441406 1715.128906 C 1763.839844 1723.488281 1762.839844 1724.058594 1769.691406 1734.578125 C 1783.328125 1755.519531 1764.039062 1746.28125 1788.339844 1750.28125 C 1792.988281 1710.460938 1755.570312 1674.390625 1737.519531 1657.46875 C 1726.519531 1647.148438 1711.558594 1633.929688 1698.351562 1625.28125 C 1680.339844 1613.5 1675.871094 1613.589844 1653.960938 1624.671875 "/>
<path fill-rule="evenodd" fill="rgb(66.992188%, 57.03125%, 83.984375%)" fill-opacity="1" d="M 1550.910156 2464.445312 C 1564.621094 2453.074219 1586.269531 2445.605469 1612.328125 2449.6875 C 1643.050781 2469.011719 1640.25 2499.847656 1640.941406 2545.820312 L 1657.898438 2548.074219 C 1659.019531 2508.980469 1659.660156 2465.433594 1634.820312 2442.996094 C 1620.789062 2430.328125 1605.878906 2428.15625 1585.398438 2432.179688 C 1562.390625 2436.695312 1554.820312 2448.894531 1550.910156 2464.445312 "/>
<path fill-rule="evenodd" fill="rgb(68.943787%, 58.006287%, 86.914062%)" fill-opacity="1" d="M 1292.078125 1902.738281 C 1290.878906 1904.101562 1289.671875 1919.984375 1286.488281 1909.871094 C 1286.148438 1908.796875 1285.21875 1912.71875 1284.101562 1913.734375 C 1299.339844 1944.105469 1311.460938 1984.171875 1340.441406 1998.398438 L 1330.808594 1897.605469 L 1292.078125 1902.738281 "/>
<path fill-rule="evenodd" fill="rgb(66.992188%, 53.90625%, 86.914062%)" fill-opacity="1" d="M 1090.570312 2548.25 L 1106.398438 2543.839844 C 1110.929688 2495.433594 1101.949219 2468.816406 1137.078125 2449.386719 C 1165.300781 2445.40625 1189.160156 2455.175781 1202.421875 2466.664062 C 1186.769531 2438.316406 1152.820312 2414.886719 1116.53125 2439.671875 C 1088.519531 2458.804688 1089.851562 2506.734375 1090.570312 2548.25 "/>
</svg>
